<svg width="616" height="616" viewBox="0 0 616 616" fill="none" xmlns="http://www.w3.org/2000/svg">
<circle cx="307.584" cy="307.584" r="257.584" stroke="#4CE77D" stroke-opacity="0.48" stroke-width="100"/>
<path d="M308.496 63.4175C306.549 63.397 304.953 62.9669 303.709 62.1271C302.491 61.261 301.889 60.2412 301.901 59.068C301.907 58.4547 302.072 58.003 302.395 57.7131C302.718 57.4231 303.12 57.2807 303.6 57.2857C304.213 57.2922 304.691 57.4972 305.033 57.9008C305.018 59.3141 305.327 60.384 305.96 61.1107C306.592 61.8374 307.548 62.2075 308.828 62.2209C310.001 62.2333 310.924 61.9496 311.597 61.37C312.27 60.7904 312.612 59.9672 312.623 58.9006C312.632 58.074 312.426 57.4051 312.004 56.894C311.583 56.3829 311.027 55.9637 310.337 55.6364C309.647 55.3092 308.904 54.9947 308.107 54.6929C307.257 54.364 306.421 53.9819 305.599 53.5465C304.777 53.1112 304.103 52.5574 303.576 51.8852C303.05 51.1863 302.793 50.3302 302.803 49.3169C302.819 47.8503 303.418 46.6699 304.601 45.7756C305.784 44.8813 307.362 44.4445 309.335 44.4653C310.455 44.477 311.466 44.6344 312.37 44.9372C313.274 45.24 313.989 45.6609 314.517 46.1998C315.045 46.7121 315.305 47.3015 315.298 47.9681C315.293 48.4748 315.129 48.8731 314.806 49.163C314.483 49.4263 314.082 49.5554 313.602 49.5504C313.175 49.5459 312.776 49.395 312.406 49.0978C312.418 48.0045 312.12 47.1614 311.513 46.5683C310.906 45.9752 310.069 45.6731 309.002 45.6618C308.016 45.6515 307.226 45.8832 306.635 46.357C306.043 46.8308 305.743 47.481 305.734 48.3077C305.727 49.0009 305.908 49.5762 306.276 50.0334C306.672 50.4643 307.188 50.8297 307.825 51.1298C308.462 51.4298 309.138 51.7303 309.855 52.0312C310.785 52.3876 311.701 52.7973 312.603 53.2601C313.531 53.7232 314.298 54.318 314.904 55.0444C315.51 55.7441 315.807 56.6806 315.794 57.8539C315.782 59.0005 315.465 59.9972 314.843 60.8441C314.221 61.6642 313.361 62.3086 312.262 62.7771C311.164 63.2189 309.909 63.4324 308.496 63.4175ZM327.087 64.3067C325.574 64.1621 324.453 63.5594 323.724 62.4986C322.997 61.4112 322.737 59.7924 322.942 57.6422L323.931 47.2894L324.471 47.9437L322.044 47.2698C321.861 47.2255 321.727 47.0921 321.641 46.8696C321.557 46.6206 321.537 46.2704 321.58 45.8191C322.602 45.7828 323.367 45.7621 323.877 45.7572C324.415 45.7283 324.844 45.7291 325.162 45.7595C325.879 45.828 326.393 46.0513 326.706 46.4294C327.044 46.81 327.178 47.3719 327.107 48.1152L326.175 57.8708C326.038 59.3042 326.215 60.3927 326.707 61.1361C327.227 61.8556 328.045 62.2686 329.16 62.3751C329.877 62.4436 330.552 62.3875 331.185 62.2069C331.845 62.0289 332.433 61.7636 332.949 61.4111C333.494 61.0345 333.963 60.6106 334.356 60.1392L334.013 60.7895L335.2 48.366L335.74 49.0204L333.273 48.3427C333.09 48.2984 332.955 48.165 332.87 47.9425C332.813 47.696 332.806 47.3471 332.849 46.8958C333.87 46.8594 334.636 46.8388 335.145 46.8339C335.684 46.805 336.099 46.8045 336.391 46.8324C337.134 46.9034 337.662 47.1279 337.974 47.506C338.286 47.8841 338.407 48.4447 338.336 49.188L337.122 61.8902C337.079 62.3415 337.139 62.6954 337.302 62.9521C337.492 63.2113 337.759 63.3574 338.104 63.3904C338.396 63.4183 338.708 63.3811 339.039 63.2788C339.399 63.1525 339.722 62.9958 340.008 62.8088L340.224 63.9143C339.724 64.3756 339.129 64.7205 338.437 64.9491C337.746 65.1777 337.095 65.2628 336.484 65.2045C335.661 65.1259 335.036 64.7983 334.609 64.2217C334.185 63.6186 334.02 62.8127 334.117 61.8039L333.918 61.7849C331.912 63.7096 329.635 64.5502 327.087 64.3067ZM344.023 65.5915C344.207 64.7582 344.519 64.3355 344.959 64.3234L347.349 64.073L346.799 64.525L349.973 50.1514L350.313 50.8408L348.103 49.9022C347.73 49.7378 347.635 49.239 347.819 48.4057C348.843 48.468 349.608 48.5278 350.115 48.585C350.653 48.6219 351.091 48.6777 351.429 48.7525C352.106 48.9021 352.551 49.1777 352.762 49.5795C352.974 49.9813 352.997 50.5597 352.83 51.3148L352.511 52.76L352.38 52.6083L352.732 52.686C353.986 51.7067 355.341 51.0094 356.799 50.5939C358.282 50.1842 359.623 50.1116 360.82 50.3761C362.278 50.6982 363.244 51.4577 363.717 52.6545C364.19 53.8514 364.194 55.5044 363.728 57.6136L361.467 67.8469L361.12 67.1966L363.637 68.4081C363.551 68.7987 363.433 69.0867 363.283 69.272C363.164 69.437 362.955 69.5819 362.654 69.7066L355.819 68.1969C356.003 67.3636 356.315 66.941 356.755 66.9288L358.837 66.7743L358.286 67.2262L360.547 56.9929C361.156 54.2327 360.485 52.637 358.532 52.2056C357.803 52.0446 357.039 52.0398 356.241 52.1912C355.449 52.3166 354.683 52.5707 353.943 52.9534C353.234 53.3159 352.606 53.7505 352.057 54.2574L352.533 53.5843L349.945 65.3019L349.597 64.6515L352.115 65.8631C352.029 66.2537 351.911 66.5417 351.761 66.727C351.642 66.892 351.42 67.034 351.093 67.153L344.023 65.5915ZM367.341 70.7419C367.525 69.9087 367.837 69.486 368.277 69.4738L370.359 69.3193L369.809 69.7712L372.069 59.5379C372.679 56.7778 372.007 55.182 370.054 54.7506C368.987 54.5148 367.86 54.6074 366.675 55.0283C365.521 55.4289 364.518 56.013 363.666 56.7806L363.59 55.0843L364.176 55.2137C365.456 54.2402 366.825 53.5458 368.282 53.1303C369.765 52.7205 371.106 52.648 372.304 52.9125C373.788 53.2404 374.766 54.0027 375.239 55.1996C375.712 56.3964 375.716 58.0494 375.25 60.1586L373.024 70.2357L372.668 69.6244L375.394 71.0049C375.308 71.3955 375.19 71.6835 375.039 71.8688C374.921 72.0338 374.712 72.1787 374.411 72.3034L367.341 70.7419ZM378.776 73.426C379.08 72.6286 379.45 72.256 379.887 72.3083L382.288 72.4102L381.677 72.7768L386.92 59.0221L387.155 59.7537L385.107 58.502C384.761 58.2848 384.741 57.7775 385.045 56.9801C386.048 57.1916 386.797 57.3626 387.289 57.4932C387.816 57.6084 388.241 57.7277 388.565 57.8512C389.213 58.0982 389.612 58.4358 389.763 58.8642C389.914 59.2927 389.851 59.8682 389.576 60.5908L389.049 61.9737L388.942 61.8046L389.278 61.9328C390.662 61.1475 392.105 60.6559 393.607 60.458C395.135 60.2696 396.471 60.3939 397.618 60.8308C399.013 61.3627 399.857 62.2552 400.15 63.5084C400.443 64.7615 400.205 66.3973 399.435 68.4156L395.703 78.2084L395.454 77.5141L397.767 79.0809C397.625 79.4547 397.466 79.7223 397.29 79.8836C397.149 80.0295 396.92 80.1422 396.605 80.2217L390.064 77.7285C390.368 76.9311 390.738 76.5586 391.175 76.6109L393.257 76.7626L392.647 77.1291L396.379 67.3364C397.386 64.6951 396.955 63.0183 395.086 62.3059C394.388 62.04 393.634 61.9236 392.822 61.9566C392.02 61.9648 391.225 62.1041 390.437 62.3745C389.683 62.6295 388.998 62.9675 388.381 63.3887L388.951 62.7925L384.676 74.0056L384.427 73.3113L386.741 74.8781C386.599 75.2519 386.44 75.5195 386.264 75.6808C386.123 75.8267 385.882 75.9347 385.541 76.0046L378.776 73.426ZM401.09 81.9313C401.394 81.1339 401.764 80.7614 402.201 80.8137L404.283 80.9654L403.673 81.3319L407.405 71.5392C408.412 68.8979 407.981 67.2211 406.112 66.5087C405.091 66.1193 403.963 66.0461 402.729 66.2892C401.529 66.5168 400.451 66.9479 399.496 67.5826L399.669 65.8934L400.23 66.1071C401.638 65.3313 403.094 64.8445 404.596 64.6466C406.123 64.4582 407.46 64.5825 408.606 65.0194C410.027 65.5607 410.883 66.458 411.176 67.7112C411.469 68.9643 411.231 70.6001 410.461 72.6184L406.786 82.2617L406.522 81.6048L409.018 83.3692C408.875 83.743 408.716 84.0106 408.54 84.1719C408.399 84.3178 408.171 84.4305 407.855 84.51L401.09 81.9313ZM418.832 90.2683C417.387 89.5199 416.286 88.5439 415.528 87.3403C414.806 86.1253 414.45 84.7844 414.459 83.3175C414.468 81.8506 414.866 80.3595 415.651 78.8442C416.546 77.1157 417.705 75.7489 419.127 74.7437C420.572 73.7507 422.108 73.1646 423.732 72.9852C425.357 72.8059 426.879 73.0843 428.3 73.8203C429.531 74.4583 430.45 75.2945 431.055 76.3289C431.696 77.3519 432.02 78.4956 432.025 79.76C432.031 81.0243 431.696 82.3076 431.021 83.6098C430.788 84.0597 430.546 84.3246 430.294 84.4044C430.055 84.4606 429.829 84.4335 429.616 84.3231L418.428 78.5264L418.999 77.4254L428.788 82.1822L428.195 82.3704C428.831 81.2585 429.198 80.2023 429.296 79.2018C429.418 78.2136 429.299 77.3413 428.94 76.5847C428.617 75.8167 428.065 75.2303 427.284 74.8254C425.982 74.1507 424.603 74.2024 423.149 74.9805C421.694 75.7587 420.397 77.2487 419.256 79.4507C418.52 80.8713 418.077 82.2187 417.927 83.4927C417.814 84.7553 418.006 85.8911 418.504 86.9002C419.003 87.9092 419.82 88.7082 420.957 89.2971C421.904 89.7878 422.938 90.0233 424.059 90.0037C425.193 89.9604 426.33 89.6786 427.471 89.1584L427.472 90.2855C426.607 90.7382 425.666 91.0466 424.65 91.2109C423.646 91.3515 422.645 91.343 421.645 91.1855C420.669 91.0402 419.731 90.7345 418.832 90.2683ZM430.207 95.7533C430.63 95.0736 431.064 94.7784 431.511 94.8676L433.849 95.4248L433.116 95.7704L440.945 83.1636L441.036 83.9265L439.264 82.3077C439.133 82.1639 439.079 81.9733 439.101 81.7358C439.137 81.4756 439.268 81.1643 439.493 80.8018C440.461 81.2146 441.174 81.532 441.632 81.7539C442.105 81.9533 442.489 82.1444 442.783 82.3273C443.327 82.6649 443.636 83.0767 443.711 83.5627C443.8 84.026 443.626 84.6088 443.19 85.3111L442.304 86.7383L442.227 86.4078L442.566 86.6188C443.839 85.9339 445.121 85.5374 446.413 85.4291C447.727 85.3349 448.792 85.541 449.607 86.0474C450.468 86.582 450.96 87.1544 451.084 87.7647C451.221 88.3522 451.114 88.9292 450.762 89.4955C450.495 89.9259 450.127 90.2153 449.658 90.3636C449.212 90.526 448.785 90.4806 448.377 90.2274C448.426 89.4414 448.343 88.841 448.13 88.4261C447.917 88.0112 447.607 87.6771 447.199 87.4239C446.564 87.0299 445.72 86.8981 444.666 87.0283C443.612 87.1585 442.556 87.4442 441.497 87.8854L442.136 87.3875L435.89 97.4457L435.794 96.5386L438.349 99.0202C438.138 99.36 437.931 99.5924 437.728 99.7173C437.547 99.8564 437.283 99.9278 436.936 99.9316L430.207 95.7533ZM459.453 116.504C458.163 115.47 457.254 114.28 456.727 112.935C456.22 111.606 456.115 110.223 456.412 108.786C456.709 107.35 457.417 105.935 458.534 104.541C459.785 102.98 461.188 101.849 462.742 101.146C464.334 100.44 465.937 100.188 467.553 100.389C469.185 100.57 470.688 101.211 472.061 102.312C472.998 103.062 473.726 103.902 474.245 104.832C474.781 105.74 475.06 106.629 475.08 107.5C475.12 108.387 474.89 109.143 474.39 109.767C474.056 110.183 473.665 110.416 473.215 110.465C472.803 110.511 472.388 110.366 471.972 110.033C471.785 109.883 471.625 109.72 471.492 109.545C471.375 109.349 471.267 109.143 471.167 108.926C472.051 107.824 472.467 106.772 472.414 105.773C472.382 104.79 471.876 103.907 470.899 103.123C469.567 102.055 468.122 101.768 466.564 102.262C465.023 102.736 463.468 103.95 461.9 105.906C460.265 107.945 459.408 109.803 459.327 111.482C459.283 113.156 460.032 114.61 461.571 115.844C462.404 116.512 463.338 116.987 464.375 117.272C465.449 117.552 466.567 117.628 467.729 117.5L467.534 118.574C466.664 118.765 465.739 118.81 464.761 118.709C463.819 118.604 462.891 118.355 461.975 117.963C461.063 117.608 460.223 117.122 459.453 116.504ZM474.287 129.367C472.491 127.656 471.606 125.744 471.63 123.631C471.654 121.518 472.559 119.525 474.343 117.652C475.722 116.204 477.254 115.196 478.938 114.627C480.641 114.076 482.336 113.979 484.023 114.334C485.711 114.689 487.24 115.52 488.61 116.826C489.808 117.966 490.592 119.211 490.964 120.56C491.355 121.889 491.35 123.248 490.95 124.634C490.55 126.021 489.752 127.342 488.556 128.597C487.158 130.064 485.617 131.082 483.934 131.651C482.268 132.201 480.582 132.289 478.876 131.915C477.207 131.54 475.677 130.691 474.287 129.367ZM475.775 128.906C477.069 130.139 478.56 130.565 480.248 130.184C481.956 129.822 483.702 128.705 485.486 126.832C487.27 124.959 488.312 123.208 488.612 121.579C488.913 119.949 488.435 118.537 487.18 117.341C485.886 116.109 484.386 115.674 482.678 116.036C480.989 116.378 479.234 117.505 477.413 119.417C475.629 121.29 474.586 123.041 474.286 124.67C474.024 126.299 474.52 127.711 475.775 128.906ZM484.964 138.996C485.299 138.691 485.582 138.507 485.812 138.442C486.041 138.377 486.257 138.397 486.46 138.501L488.637 139.766L487.927 139.817L507.194 122.3L507.073 123.058L505.73 120.927C505.52 120.578 505.731 120.116 506.362 119.542C507.053 120.103 507.634 120.584 508.106 120.984C508.578 121.384 509.002 121.791 509.379 122.205C510.204 123.113 510.044 124.087 508.9 125.127L490.165 142.16L490.227 141.455L491.844 144.364C491.548 144.633 491.286 144.8 491.056 144.864C490.864 144.931 490.6 144.918 490.265 144.827L484.964 138.996ZM493.979 149.021C494.33 148.735 494.623 148.566 494.856 148.514C495.088 148.462 495.303 148.494 495.5 148.609L497.603 149.993L496.891 150.004L517.1 133.583L516.937 134.333L515.715 132.131C515.525 131.77 515.761 131.321 516.423 130.783C517.081 131.382 517.635 131.894 518.084 132.319C518.533 132.745 518.934 133.175 519.287 133.61C520.061 134.562 519.847 135.525 518.647 136.501L498.996 152.468L499.097 151.768L500.551 154.762C500.24 155.014 499.969 155.166 499.736 155.218C499.54 155.273 499.278 155.246 498.948 155.136L493.979 149.021ZM506.429 166.066C505.49 164.737 504.961 163.364 504.841 161.947C504.758 160.536 505.058 159.182 505.741 157.883C506.423 156.585 507.461 155.443 508.855 154.458C510.445 153.335 512.102 152.653 513.827 152.414C515.567 152.197 517.2 152.382 518.725 152.969C520.251 153.557 521.475 154.504 522.398 155.811C523.198 156.943 523.63 158.108 523.692 159.305C523.791 160.508 523.552 161.672 522.976 162.798C522.4 163.923 521.513 164.909 520.315 165.756C519.901 166.048 519.564 166.172 519.304 166.127C519.066 166.067 518.877 165.939 518.739 165.743L511.468 155.453L512.481 154.737L518.988 163.461L518.375 163.356C519.451 162.661 520.262 161.891 520.809 161.048C521.371 160.226 521.667 159.397 521.696 158.56C521.762 157.729 521.541 156.955 521.034 156.236C520.187 155.038 518.939 154.451 517.29 154.473C515.641 154.496 513.803 155.223 511.778 156.654C510.471 157.577 509.459 158.57 508.74 159.633C508.059 160.702 507.708 161.799 507.686 162.924C507.665 164.049 508.024 165.135 508.763 166.18C509.378 167.051 510.188 167.736 511.193 168.234C512.22 168.717 513.359 168.989 514.611 169.051L514.095 170.053C513.118 170.057 512.141 169.899 511.163 169.578C510.207 169.241 509.321 168.773 508.506 168.174C507.706 167.596 507.014 166.893 506.429 166.066ZM517.422 182.911C516.582 181.487 516.154 180.052 516.137 178.607C516.134 177.185 516.525 175.854 517.312 174.616C518.099 173.378 519.261 172.305 520.8 171.397C522.523 170.381 524.235 169.82 525.937 169.713C527.676 169.616 529.265 169.948 530.704 170.709C532.167 171.456 533.345 172.588 534.24 174.103C534.85 175.137 535.233 176.18 535.39 177.233C535.57 178.273 535.515 179.203 535.225 180.024C534.949 180.868 534.466 181.493 533.777 181.9C533.318 182.171 532.869 182.25 532.431 182.137C532.029 182.033 531.693 181.752 531.422 181.293C531.3 181.086 531.208 180.877 531.145 180.666C531.106 180.442 531.078 180.211 531.061 179.973C532.279 179.255 533.039 178.419 533.344 177.465C533.662 176.535 533.502 175.529 532.865 174.45C531.998 172.98 530.748 172.2 529.116 172.11C527.507 172.007 525.623 172.592 523.464 173.866C521.213 175.194 519.753 176.628 519.083 178.169C518.45 179.72 518.634 181.344 519.637 183.044C520.179 183.963 520.885 184.739 521.753 185.372C522.659 186.014 523.677 186.481 524.81 186.773L524.247 187.709C523.365 187.579 522.485 187.293 521.605 186.852C520.762 186.421 519.982 185.859 519.265 185.168C518.538 184.513 517.924 183.761 517.422 182.911ZM526.138 198.69C525.568 197.544 525.498 196.506 525.93 195.577C526.373 194.672 527.323 193.857 528.779 193.132L544.108 185.508C544.406 185.628 544.703 185.808 545.001 186.047C545.334 186.298 545.65 186.573 545.947 186.872C546.257 187.194 546.506 187.517 546.697 187.839L530.652 195.82C529.721 196.283 529.105 196.753 528.806 197.229C528.543 197.717 528.583 198.308 528.928 199C529.201 199.549 529.611 200.075 530.159 200.577C530.718 201.103 531.409 201.534 532.231 201.869L531.585 202.816C531.132 202.744 530.548 202.528 529.833 202.168C529.131 201.833 528.44 201.372 527.761 200.787C527.083 200.201 526.542 199.502 526.138 198.69ZM542.745 195.434L538.026 185.495C538.36 185.329 538.676 185.217 538.974 185.158C539.308 185.111 539.577 185.141 539.779 185.249L545.161 195.081C545.065 195.188 544.964 195.283 544.856 195.366C544.773 195.438 544.671 195.503 544.552 195.563C544.17 195.753 543.812 195.841 543.478 195.829C543.168 195.804 542.924 195.672 542.745 195.434ZM530.67 206.937C531.455 206.603 531.98 206.611 532.245 206.961L533.886 208.871L533.198 208.686L546.886 202.85L546.522 203.527L545.954 201.073C545.846 200.684 546.197 200.317 547.007 199.972C547.485 200.753 547.864 201.404 548.143 201.922C548.457 202.455 548.729 202.991 548.959 203.531C549.44 204.659 548.982 205.522 547.584 206.118L534.558 211.672L534.848 211.026L535.404 214.268C535.036 214.425 534.733 214.496 534.495 214.482C534.292 214.481 534.047 214.383 533.76 214.186L530.67 206.937ZM552.618 202.015C552.367 201.426 552.333 200.904 552.515 200.449C552.723 199.984 553.097 199.636 553.636 199.406C554.176 199.176 554.696 199.172 555.196 199.393C555.707 199.639 556.062 199.995 556.26 200.461C556.511 201.05 556.533 201.577 556.326 202.043C556.153 202.522 555.785 202.882 555.221 203.122C554.706 203.342 554.193 203.329 553.682 203.083C553.182 202.861 552.827 202.505 552.618 202.015ZM537.853 226.711C537.053 224.363 537.153 222.258 538.153 220.397C539.153 218.535 540.877 217.187 543.326 216.353C545.219 215.708 547.043 215.523 548.799 215.798C550.564 216.099 552.111 216.797 553.443 217.893C554.774 218.989 555.744 220.433 556.355 222.225C556.888 223.79 557.007 225.257 556.713 226.625C556.443 227.984 555.81 229.186 554.814 230.23C553.817 231.273 552.498 232.075 550.858 232.634C548.939 233.287 547.102 233.476 545.346 233.201C543.616 232.917 542.08 232.215 540.741 231.094C539.435 229.989 538.472 228.528 537.853 226.711ZM539.385 226.991C539.962 228.683 541.086 229.75 542.759 230.195C544.44 230.665 546.505 230.482 548.953 229.648C551.402 228.814 553.136 227.745 554.156 226.439C555.177 225.134 555.407 223.661 554.848 222.02C554.272 220.329 553.144 219.248 551.462 218.779C549.806 218.3 547.729 218.487 545.23 219.338C542.781 220.172 541.047 221.242 540.027 222.547C539.04 223.869 538.827 225.351 539.385 226.991ZM542.819 240.21C543.649 240.014 544.165 240.111 544.367 240.501L545.632 242.545L544.869 242.273L559.31 238.855L558.837 239.46L558.721 237.062C558.707 236.654 559.115 236.352 559.945 236.156C560.334 237.105 560.613 237.82 560.782 238.301C560.983 238.801 561.123 239.22 561.203 239.557C561.362 240.232 561.307 240.752 561.038 241.117C560.768 241.483 560.257 241.754 559.504 241.933L558.064 242.274L558.126 242.012L558.227 242.441C559.666 243.196 560.893 244.152 561.907 245.31C562.927 246.493 563.588 247.721 563.889 248.992C564.601 252.002 562.869 254.002 558.691 254.991L548.649 257.369L549.044 256.782L548.986 259.837C548.597 259.93 548.289 259.961 548.063 259.933C547.863 259.898 547.642 259.772 547.399 259.556L545.731 252.51C546.561 252.314 547.077 252.411 547.279 252.801L548.315 254.57L547.561 254.338L557.876 251.896C560.626 251.245 561.756 249.881 561.265 247.805C561.08 247.027 560.74 246.285 560.245 245.58C559.781 244.895 559.213 244.29 558.54 243.764C557.894 243.232 557.22 242.816 556.518 242.516L557.332 242.652L545.654 245.417L546.089 244.821L546.093 247.615C545.703 247.707 545.393 247.726 545.161 247.671C544.961 247.637 544.736 247.498 544.487 247.256L542.819 240.21ZM550.241 281.425C550.047 279.488 550.299 277.855 550.997 276.526C551.724 275.22 552.671 274.509 553.838 274.392C554.449 274.331 554.916 274.445 555.239 274.734C555.563 275.023 555.749 275.407 555.797 275.884C555.858 276.495 555.707 276.992 555.343 277.377C553.937 277.518 552.907 277.942 552.255 278.651C551.602 279.359 551.339 280.351 551.467 281.624C551.584 282.792 551.967 283.678 552.617 284.283C553.268 284.888 554.123 285.137 555.185 285.031C556.007 284.948 556.649 284.67 557.111 284.195C557.573 283.72 557.928 283.121 558.178 282.4C558.427 281.678 558.658 280.904 558.87 280.079C559.103 279.198 559.391 278.325 559.733 277.46C560.075 276.595 560.552 275.864 561.162 275.267C561.799 274.667 562.621 274.317 563.629 274.216C565.089 274.07 566.328 274.535 567.347 275.612C568.366 276.69 568.974 278.21 569.17 280.174C569.282 281.288 569.237 282.311 569.035 283.242C568.834 284.174 568.494 284.931 568.017 285.515C567.566 286.096 567.009 286.42 566.345 286.486C565.841 286.537 565.427 286.417 565.103 286.128C564.806 285.836 564.634 285.452 564.586 284.974C564.543 284.55 564.649 284.137 564.904 283.736C565.992 283.627 566.797 283.238 567.32 282.57C567.843 281.901 568.051 281.036 567.945 279.975C567.846 278.993 567.529 278.234 566.993 277.698C566.457 277.162 565.778 276.935 564.955 277.018C564.265 277.087 563.713 277.33 563.299 277.746C562.915 278.187 562.608 278.74 562.38 279.406C562.152 280.072 561.928 280.778 561.708 281.524C561.456 282.487 561.149 283.442 560.789 284.389C560.431 285.363 559.924 286.191 559.269 286.873C558.64 287.552 557.742 287.951 556.574 288.067C555.433 288.182 554.408 287.976 553.497 287.451C552.614 286.923 551.879 286.139 551.292 285.099C550.732 284.056 550.382 282.832 550.241 281.425ZM551.401 299.996C551.378 298.476 551.854 297.295 552.829 296.454C553.83 295.613 555.41 295.176 557.57 295.144L567.969 294.991L567.378 295.6L567.781 293.114C567.805 292.927 567.923 292.778 568.134 292.669C568.373 292.558 568.719 292.5 569.172 292.493C569.32 293.505 569.425 294.263 569.486 294.769C569.573 295.301 569.62 295.727 569.624 296.047C569.635 296.767 569.469 297.303 569.128 297.655C568.787 298.033 568.243 298.228 567.496 298.239L557.697 298.383C556.258 298.404 555.195 298.7 554.51 299.27C553.852 299.866 553.531 300.724 553.548 301.844C553.559 302.564 553.688 303.229 553.937 303.839C554.187 304.475 554.515 305.03 554.922 305.505C555.356 306.005 555.829 306.425 556.341 306.764L555.657 306.494L568.135 306.31L567.544 306.919L567.947 304.393C567.971 304.206 568.089 304.057 568.301 303.947C568.539 303.864 568.885 303.819 569.339 303.812C569.487 304.823 569.591 305.582 569.652 306.088C569.74 306.62 569.786 307.033 569.79 307.326C569.801 308.072 569.636 308.622 569.295 308.973C568.953 309.325 568.409 309.506 567.662 309.517L554.904 309.705C554.451 309.712 554.105 309.81 553.868 310.001C553.631 310.217 553.515 310.499 553.52 310.846C553.525 311.139 553.596 311.445 553.734 311.763C553.899 312.107 554.09 312.411 554.308 312.674L553.232 313.01C552.719 312.564 552.311 312.01 552.008 311.348C551.705 310.686 551.549 310.048 551.54 309.435C551.527 308.608 551.784 307.951 552.311 307.463C552.863 306.975 553.646 306.723 554.66 306.709L554.657 306.509C552.524 304.726 551.438 302.556 551.401 299.996ZM551.983 316.992C552.832 317.082 553.287 317.345 553.348 317.781L553.863 320.128L553.352 319.632L567.99 321.185L567.343 321.599L568.03 319.299C568.151 318.91 568.636 318.76 569.485 318.85C569.537 319.875 569.563 320.642 569.563 321.151C569.586 321.69 569.579 322.132 569.543 322.476C569.469 323.166 569.245 323.638 568.869 323.893C568.494 324.148 567.921 324.235 567.152 324.154L565.68 323.997L565.817 323.851L565.779 324.209C566.891 325.346 567.736 326.616 568.311 328.017C568.883 329.446 569.105 330.77 568.975 331.99C568.818 333.475 568.17 334.519 567.034 335.122C565.897 335.726 564.255 335.913 562.107 335.685L551.685 334.579L552.293 334.161L551.369 336.798C550.971 336.756 550.672 336.67 550.471 336.542C550.294 336.443 550.127 336.251 549.969 335.966L550.708 329.005C551.557 329.095 552.012 329.358 552.073 329.793L552.458 331.845L551.948 331.349L562.369 332.455C565.18 332.753 566.691 331.908 566.902 329.919C566.981 329.177 566.901 328.417 566.661 327.641C566.448 326.868 566.111 326.135 565.648 325.442C565.209 324.779 564.707 324.202 564.142 323.713L564.864 324.112L552.931 322.845L553.538 322.427L552.615 325.064C552.217 325.022 551.918 324.936 551.717 324.808C551.54 324.709 551.374 324.503 551.219 324.192L551.983 316.992ZM549.463 340.739C550.311 340.829 550.766 341.092 550.827 341.527L551.212 343.579L550.702 343.083L561.124 344.189C563.934 344.487 565.445 343.642 565.657 341.653C565.772 340.566 565.554 339.457 565.004 338.326C564.477 337.224 563.785 336.293 562.928 335.531L564.605 335.267L564.541 335.863C565.652 337.027 566.494 338.31 567.069 339.712C567.642 341.14 567.863 342.464 567.734 343.684C567.573 345.196 566.925 346.253 565.788 346.856C564.651 347.46 563.009 347.647 560.861 347.419L550.599 346.33L551.166 345.908L550.098 348.771C549.7 348.729 549.401 348.643 549.2 348.515C549.023 348.415 548.856 348.223 548.698 347.938L549.463 340.739ZM548.068 352.408C548.895 352.621 549.306 352.947 549.303 353.387L549.47 355.784L549.038 355.219L563.292 358.891L562.591 359.206L563.606 357.031C563.784 356.663 564.285 356.586 565.112 356.799C565.014 357.82 564.928 358.583 564.853 359.087C564.797 359.623 564.726 360.059 564.64 360.395C564.467 361.066 564.176 361.501 563.767 361.699C563.358 361.896 562.779 361.898 562.03 361.705L560.597 361.336L560.753 361.211L560.663 361.56C561.598 362.847 562.248 364.226 562.613 365.697C562.971 367.194 562.996 368.536 562.69 369.724C562.318 371.17 561.525 372.108 560.313 372.54C559.1 372.971 557.448 372.917 555.356 372.378L545.208 369.763L545.87 369.438L544.571 371.912C544.184 371.812 543.9 371.684 543.72 371.528C543.56 371.404 543.422 371.189 543.308 370.884L545.054 364.106C545.881 364.319 546.292 364.645 546.289 365.085L546.371 367.171L545.939 366.605L556.087 369.22C558.824 369.926 560.443 369.31 560.942 367.373C561.128 366.65 561.159 365.887 561.036 365.084C560.938 364.288 560.711 363.513 560.354 362.761C560.016 362.04 559.604 361.397 559.116 360.831L559.772 361.33L548.152 358.336L548.814 358.011L547.515 360.485C547.128 360.386 546.844 360.257 546.665 360.101C546.504 359.977 546.37 359.749 546.262 359.419L548.068 352.408ZM542.11 375.533C542.936 375.746 543.348 376.072 543.345 376.512L543.427 378.598L542.994 378.032L553.143 380.647C555.88 381.352 557.498 380.737 557.997 378.8C558.27 377.741 558.217 376.612 557.837 375.413C557.477 374.246 556.928 373.223 556.191 372.345L557.889 372.328L557.739 372.909C558.667 374.222 559.314 375.614 559.678 377.085C560.036 378.582 560.062 379.924 559.756 381.112C559.377 382.584 558.581 383.535 557.368 383.966C556.156 384.397 554.504 384.344 552.412 383.805L542.418 381.23L543.042 380.895L541.567 383.571C541.18 383.472 540.896 383.343 540.716 383.187C540.555 383.063 540.418 382.848 540.304 382.544L542.11 375.533ZM535.801 394.07C536.386 392.552 537.234 391.351 538.347 390.465C539.475 389.613 540.769 389.112 542.228 388.959C543.687 388.807 545.213 389.038 546.805 389.651C548.622 390.351 550.108 391.352 551.264 392.655C552.41 393.982 553.161 395.444 553.518 397.039C553.875 398.634 553.766 400.178 553.191 401.671C552.693 402.965 551.962 403.969 551.001 404.685C550.055 405.435 548.954 405.882 547.698 406.027C546.442 406.172 545.129 405.98 543.761 405.453C543.288 405.271 542.998 405.059 542.891 404.818C542.809 404.586 542.811 404.358 542.897 404.134L547.427 392.377L548.584 392.823L544.934 403.076L544.681 402.507C545.857 403.017 546.947 403.266 547.952 403.253C548.947 403.265 549.801 403.051 550.514 402.611C551.242 402.206 551.764 401.592 552.08 400.771C552.607 399.403 552.404 398.038 551.471 396.678C550.537 395.319 548.913 394.193 546.599 393.301C545.106 392.726 543.718 392.434 542.436 392.426C541.168 392.452 540.06 392.768 539.112 393.374C538.164 393.981 537.46 394.881 537 396.076C536.617 397.071 536.496 398.125 536.639 399.237C536.807 400.359 537.212 401.458 537.855 402.535L536.735 402.661C536.19 401.85 535.78 400.949 535.504 399.957C535.254 398.975 535.152 397.979 535.199 396.968C535.236 395.982 535.436 395.016 535.801 394.07ZM531.597 405.995C532.32 406.339 532.661 406.738 532.622 407.192L532.329 409.577L531.904 408.887L545.303 415.266L544.555 415.441L545.967 413.5C546.095 413.354 546.278 413.279 546.517 413.274C546.779 413.281 547.103 413.376 547.488 413.56C547.186 414.567 546.95 415.312 546.78 415.792C546.635 416.284 546.487 416.686 546.338 416.999C546.063 417.577 545.688 417.93 545.214 418.059C544.763 418.199 544.165 418.091 543.418 417.736L541.902 417.014L542.221 416.9L542.049 417.261C542.872 418.45 543.408 419.68 543.66 420.952C543.899 422.247 543.813 423.328 543.4 424.195C542.965 425.11 542.451 425.663 541.858 425.853C541.289 426.055 540.704 426.013 540.102 425.726C539.645 425.508 539.316 425.175 539.117 424.725C538.906 424.3 538.903 423.871 539.109 423.437C539.896 423.398 540.484 423.25 540.872 422.992C541.261 422.734 541.558 422.388 541.765 421.954C542.086 421.28 542.123 420.427 541.876 419.394C541.629 418.361 541.228 417.343 540.672 416.34L541.238 416.919L530.547 411.83L531.438 411.634L529.256 414.449C528.895 414.277 528.641 414.097 528.494 413.909C528.336 413.746 528.235 413.491 528.193 413.146L531.597 405.995ZM514.235 437.345C515.122 435.95 516.205 434.916 517.485 434.244C518.75 433.595 520.113 433.339 521.573 433.477C523.034 433.614 524.518 434.162 526.026 435.12C527.714 436.193 528.993 437.463 529.861 438.93C530.738 440.435 531.165 442.001 531.141 443.629C531.141 445.272 530.669 446.836 529.725 448.321C529.082 449.334 528.327 450.15 527.46 450.768C526.616 451.401 525.762 451.775 524.899 451.89C524.022 452.028 523.246 451.882 522.57 451.453C522.12 451.167 521.846 450.804 521.747 450.362C521.657 449.957 521.755 449.53 522.041 449.079C522.169 448.877 522.313 448.7 522.473 448.548C522.655 448.411 522.848 448.281 523.052 448.158C524.245 448.916 525.336 449.214 526.323 449.051C527.297 448.911 528.119 448.312 528.791 447.254C529.706 445.814 529.833 444.346 529.171 442.852C528.532 441.371 527.154 439.959 525.038 438.615C522.832 437.214 520.891 436.565 519.214 436.669C517.545 436.81 516.182 437.713 515.124 439.378C514.552 440.279 514.181 441.26 514.012 442.321C513.852 443.42 513.899 444.54 514.153 445.681L513.064 445.605C512.779 444.76 512.633 443.846 512.626 442.863C512.627 441.916 512.773 440.966 513.062 440.012C513.315 439.067 513.706 438.178 514.235 437.345ZM503.077 453.516C504.578 451.542 506.38 450.451 508.483 450.241C510.586 450.031 512.667 450.71 514.725 452.276C516.317 453.487 517.489 454.897 518.24 456.508C518.976 458.14 519.26 459.814 519.094 461.53C518.928 463.246 518.271 464.858 517.125 466.365C516.124 467.68 514.974 468.598 513.674 469.117C512.396 469.652 511.045 469.798 509.623 469.553C508.201 469.309 506.8 468.662 505.42 467.612C503.807 466.385 502.625 464.967 501.873 463.356C501.143 461.762 500.869 460.096 501.051 458.358C501.239 456.658 501.914 455.044 503.077 453.516ZM503.699 454.944C502.617 456.366 502.359 457.895 502.923 459.531C503.472 461.188 504.776 462.8 506.834 464.366C508.893 465.932 510.749 466.774 512.401 466.892C514.054 467.01 515.405 466.379 516.454 465C517.536 463.578 517.803 462.038 517.254 460.381C516.726 458.74 515.412 457.121 513.311 455.522C511.252 453.956 509.397 453.114 507.744 452.996C506.097 452.915 504.748 453.565 503.699 454.944ZM494.694 465.183C495.034 465.482 495.248 465.743 495.338 465.964C495.427 466.185 495.431 466.402 495.35 466.615L494.332 468.918L494.203 468.217L513.729 485.446L512.961 485.409L514.932 483.841C515.257 483.594 515.739 483.752 516.379 484.317C515.896 485.065 515.482 485.695 515.137 486.208C514.791 486.721 514.433 487.187 514.062 487.607C513.251 488.527 512.265 488.475 511.105 487.452L492.119 470.7L492.827 470.684L490.113 472.61C489.813 472.346 489.619 472.103 489.529 471.882C489.442 471.698 489.426 471.435 489.48 471.091L494.694 465.183ZM485.707 475.259C486.03 475.577 486.23 475.849 486.307 476.074C486.385 476.3 486.377 476.517 486.285 476.725L485.144 478.969L485.053 478.263L503.623 496.518L502.859 496.44L504.911 494.98C505.248 494.751 505.721 494.935 506.33 495.533C505.808 496.254 505.361 496.862 504.988 497.355C504.615 497.848 504.232 498.295 503.839 498.694C502.979 499.569 501.998 499.464 500.895 498.38L482.839 480.629L483.546 480.652L480.733 482.429C480.448 482.149 480.266 481.896 480.189 481.67C480.112 481.482 480.11 481.218 480.182 480.878L485.707 475.259ZM470.159 489.506C471.376 488.427 472.683 487.75 474.078 487.475C475.472 487.238 476.851 487.387 478.217 487.923C479.582 488.458 480.831 489.365 481.963 490.642C483.254 492.099 484.114 493.671 484.541 495.359C484.948 497.065 484.944 498.708 484.527 500.289C484.111 501.869 483.304 503.19 482.107 504.252C481.069 505.171 479.959 505.728 478.776 505.921C477.591 506.152 476.407 506.043 475.225 505.594C474.043 505.145 472.966 504.372 471.993 503.274C471.657 502.895 471.497 502.573 471.513 502.31C471.546 502.066 471.653 501.865 471.833 501.706L481.262 493.348L482.084 494.276L474.128 501.702L474.165 501.081C474.974 502.075 475.828 502.797 476.727 503.248C477.605 503.716 478.462 503.919 479.297 503.856C480.13 503.83 480.875 503.526 481.534 502.942C482.631 501.969 483.078 500.664 482.875 499.028C482.671 497.391 481.747 495.644 480.102 493.788C479.041 492.591 477.942 491.694 476.807 491.096C475.67 490.537 474.541 490.308 473.42 490.411C472.299 490.513 471.26 490.989 470.302 491.838C469.504 492.545 468.912 493.426 468.528 494.48C468.161 495.553 468.015 496.715 468.091 497.967L467.038 497.563C466.927 496.593 466.977 495.605 467.189 494.597C467.418 493.61 467.786 492.678 468.292 491.802C468.779 490.943 469.401 490.178 470.159 489.506ZM454.62 502.294C455.942 501.302 457.321 500.718 458.756 500.541C460.169 500.381 461.534 500.623 462.852 501.268C464.169 501.913 465.364 502.95 466.437 504.379C467.637 505.978 468.384 507.618 468.678 509.298C468.967 511.015 468.813 512.631 468.216 514.146C467.635 515.682 466.641 516.979 465.233 518.035C464.273 518.755 463.279 519.252 462.25 519.524C461.236 519.818 460.306 519.866 459.458 519.669C458.588 519.488 457.913 519.077 457.433 518.438C457.113 518.011 456.985 517.574 457.049 517.126C457.107 516.715 457.35 516.35 457.776 516.029C457.968 515.885 458.166 515.771 458.368 515.685C458.587 515.621 458.814 515.568 459.048 515.525C459.897 516.655 460.812 517.319 461.793 517.516C462.753 517.729 463.734 517.46 464.737 516.707C466.102 515.683 466.739 514.355 466.647 512.723C466.572 511.112 465.782 509.304 464.278 507.299C462.709 505.209 461.122 503.916 459.516 503.421C457.906 502.963 456.311 503.326 454.733 504.51C453.88 505.151 453.187 505.938 452.654 506.871C452.115 507.842 451.764 508.906 451.599 510.063L450.606 509.608C450.638 508.717 450.825 507.81 451.166 506.888C451.501 506.002 451.973 505.165 452.581 504.375C453.151 503.58 453.831 502.887 454.62 502.294ZM439.894 512.715C440.969 512.021 441.993 511.836 442.964 512.161C443.913 512.5 444.829 513.353 445.712 514.72L454.999 529.102C454.913 529.411 454.768 529.727 454.563 530.05C454.351 530.409 454.113 530.753 453.849 531.082C453.563 531.426 453.27 531.71 452.971 531.935L443.25 516.881C442.686 516.007 442.151 515.448 441.644 515.204C441.129 514.997 440.547 515.103 439.897 515.522C439.382 515.855 438.905 516.322 438.468 516.922C438.007 517.536 437.656 518.271 437.415 519.125L436.402 518.589C436.423 518.131 436.573 517.526 436.85 516.776C437.105 516.04 437.485 515.302 437.992 514.563C438.498 513.823 439.132 513.207 439.894 512.715ZM444.983 528.856L454.333 523.056C454.535 523.37 454.682 523.672 454.774 523.962C454.858 524.288 454.858 524.558 454.774 524.772L445.603 531.217C445.486 531.134 445.38 531.043 445.286 530.946C445.205 530.871 445.129 530.777 445.057 530.665C444.825 530.307 444.697 529.961 444.673 529.628C444.662 529.317 444.766 529.06 444.983 528.856ZM432.22 518.126C432.639 518.87 432.689 519.393 432.37 519.695L430.652 521.536L430.761 520.832L438.067 533.794L437.354 533.507L439.731 532.673C440.106 532.523 440.509 532.831 440.941 533.598C440.217 534.159 439.612 534.607 439.127 534.942C438.632 535.312 438.129 535.642 437.618 535.93C436.549 536.532 435.642 536.171 434.896 534.847L427.943 522.512L428.616 522.729L425.455 523.638C425.259 523.29 425.155 522.997 425.143 522.758C425.121 522.556 425.192 522.302 425.356 521.996L432.22 518.126ZM439.528 539.399C440.085 539.085 440.6 538.994 441.072 539.126C441.558 539.281 441.944 539.614 442.232 540.125C442.52 540.636 442.582 541.152 442.417 541.674C442.228 542.209 441.913 542.6 441.472 542.849C440.915 543.163 440.393 543.243 439.908 543.088C439.412 542.969 439.014 542.643 438.713 542.109C438.438 541.621 438.395 541.109 438.583 540.575C438.748 540.053 439.063 539.661 439.528 539.399ZM413.339 527.474C415.582 526.416 417.685 526.279 419.647 527.063C421.609 527.847 423.142 529.409 424.246 531.748C425.1 533.557 425.488 535.349 425.412 537.125C425.312 538.912 424.792 540.529 423.852 541.974C422.913 543.42 421.587 544.547 419.874 545.355C418.379 546.061 416.935 546.344 415.543 546.205C414.162 546.09 412.896 545.596 411.747 544.723C410.598 543.849 409.654 542.629 408.914 541.061C408.049 539.229 407.655 537.424 407.731 535.649C407.819 533.897 408.345 532.293 409.308 530.836C410.259 529.414 411.603 528.293 413.339 527.474ZM413.232 529.028C411.616 529.791 410.682 531.028 410.428 532.74C410.15 534.463 410.563 536.495 411.667 538.834C412.771 541.173 414.028 542.776 415.44 543.644C416.852 544.511 418.341 544.575 419.909 543.835C421.525 543.072 422.472 541.83 422.749 540.106C423.039 538.407 422.62 536.364 421.493 533.976C420.39 531.637 419.132 530.033 417.72 529.166C416.296 528.335 414.8 528.289 413.232 529.028ZM400.495 533.918C400.783 534.721 400.744 535.245 400.378 535.489L398.488 536.973L398.673 536.185L403.677 550.156L403.023 549.753L405.393 549.371C405.797 549.312 406.142 549.683 406.43 550.487C405.53 550.979 404.851 551.336 404.392 551.557C403.917 551.812 403.516 551.998 403.189 552.115C402.537 552.349 402.014 552.352 401.621 552.124C401.228 551.897 400.901 551.419 400.64 550.691L400.141 549.298L400.407 549.33L399.993 549.478C399.403 550.993 398.589 552.318 397.551 553.455C396.488 554.6 395.342 555.393 394.112 555.834C391.2 556.877 389.02 555.378 387.572 551.336L384.092 541.62L384.719 541.948L381.676 542.231C381.541 541.854 381.476 541.552 381.479 541.324C381.491 541.121 381.592 540.887 381.78 540.621L388.596 538.18C388.883 538.983 388.844 539.507 388.479 539.752L386.836 540.977L386.983 540.202L390.558 550.181C391.511 552.842 392.992 553.813 395 553.094C395.753 552.824 396.452 552.404 397.097 551.833C397.727 551.296 398.265 550.664 398.713 549.937C399.17 549.235 399.508 548.519 399.728 547.789L399.683 548.612L395.636 537.315L396.277 537.68L393.501 537.995C393.366 537.619 393.312 537.312 393.341 537.075C393.353 536.872 393.466 536.634 393.679 536.359L400.495 533.918ZM360.368 545.897C362.272 545.489 363.923 545.557 365.321 546.103C366.7 546.68 367.512 547.543 367.758 548.69C367.886 549.289 367.825 549.766 367.573 550.12C367.322 550.474 366.962 550.701 366.492 550.802C365.893 550.93 365.381 550.836 364.958 550.517C364.662 549.135 364.126 548.159 363.349 547.589C362.572 547.019 361.558 546.869 360.307 547.137C359.159 547.383 358.321 547.863 357.792 548.576C357.264 549.289 357.111 550.167 357.334 551.21C357.508 552.019 357.856 552.626 358.379 553.032C358.903 553.438 359.537 553.725 360.282 553.892C361.027 554.06 361.821 554.203 362.665 554.322C363.567 554.456 364.466 554.645 365.364 554.889C366.262 555.133 367.041 555.525 367.702 556.065C368.369 556.631 368.809 557.41 369.021 558.401C369.328 559.835 369.004 561.118 368.046 562.25C367.089 563.383 365.646 564.156 363.716 564.57C362.621 564.804 361.599 564.873 360.651 564.776C359.703 564.68 358.913 564.426 358.28 564.017C357.652 563.633 357.268 563.115 357.128 562.464C357.022 561.968 357.095 561.543 357.346 561.19C357.603 560.862 357.966 560.648 358.436 560.547C358.853 560.458 359.275 560.517 359.701 560.726C359.93 561.795 360.406 562.552 361.129 562.997C361.852 563.442 362.735 563.553 363.778 563.329C364.742 563.122 365.461 562.723 365.934 562.13C366.407 561.538 366.557 560.838 366.384 560.03C366.239 559.352 365.936 558.83 365.476 558.465C364.995 558.132 364.411 557.889 363.724 557.736C363.037 557.583 362.31 557.439 361.545 557.303C360.56 557.16 359.576 556.962 358.595 556.708C357.587 556.461 356.708 556.049 355.957 555.474C355.212 554.924 354.717 554.076 354.471 552.929C354.231 551.808 354.321 550.765 354.742 549.803C355.168 548.866 355.866 548.048 356.834 547.349C357.808 546.677 358.986 546.193 360.368 545.897ZM342.054 549.102C343.562 548.912 344.788 549.255 345.731 550.131C346.677 551.034 347.285 552.556 347.555 554.7L348.851 565.018L348.181 564.498L350.697 564.625C350.885 564.628 351.046 564.729 351.178 564.928C351.314 565.152 351.41 565.49 351.467 565.94C350.478 566.198 349.735 566.386 349.239 566.502C348.72 566.648 348.302 566.74 347.984 566.78C347.27 566.87 346.719 566.765 346.332 566.464C345.918 566.166 345.665 565.647 345.572 564.907L344.35 555.183C344.17 553.754 343.76 552.731 343.118 552.113C342.452 551.524 341.564 551.3 340.453 551.44C339.738 551.529 339.092 551.732 338.513 552.046C337.908 552.364 337.393 552.751 336.966 553.208C336.517 553.695 336.151 554.211 335.871 554.757L336.064 554.047L337.62 566.43L336.95 565.909L339.505 566.032C339.693 566.035 339.854 566.136 339.986 566.334C340.096 566.562 340.179 566.901 340.235 567.351C339.246 567.61 338.504 567.797 338.008 567.913C337.489 568.059 337.083 568.15 336.792 568.187C336.052 568.28 335.488 568.176 335.1 567.875C334.713 567.575 334.473 567.054 334.38 566.313L332.789 553.652C332.732 553.203 332.597 552.87 332.381 552.656C332.14 552.444 331.847 552.36 331.503 552.403C331.212 552.44 330.916 552.544 330.615 552.716C330.291 552.918 330.01 553.142 329.772 553.387L329.32 552.355C329.707 551.796 330.212 551.329 330.837 550.955C331.462 550.581 332.079 550.355 332.688 550.279C333.508 550.176 334.189 550.359 334.732 550.828C335.278 551.324 335.614 552.075 335.741 553.08L335.939 553.055C337.476 550.739 339.514 549.421 342.054 549.102ZM325.239 551.55C325.242 552.403 325.03 552.884 324.604 552.992L322.326 553.759L322.764 553.198L322.814 567.918L322.332 567.319L324.693 567.751C325.093 567.83 325.295 568.296 325.298 569.149C324.285 569.313 323.525 569.422 323.019 569.477C322.486 569.559 322.046 569.6 321.699 569.602C321.006 569.604 320.512 569.432 320.218 569.086C319.923 568.741 319.775 568.181 319.772 567.408L319.767 565.928L319.927 566.047L319.567 566.049C318.558 567.279 317.388 568.256 316.057 568.98C314.7 569.705 313.408 570.069 312.181 570.073C310.688 570.078 309.579 569.549 308.856 568.485C308.132 567.42 307.767 565.808 307.759 563.648L307.724 553.168L308.206 553.727L305.484 553.096C305.482 552.696 305.535 552.389 305.641 552.175C305.72 551.988 305.893 551.801 306.159 551.614L313.159 551.59C313.162 552.443 312.95 552.924 312.524 553.032L310.526 553.639L310.964 553.077L310.999 563.557C311.008 566.384 312.013 567.794 314.013 567.787C314.76 567.785 315.506 567.622 316.252 567.3C316.997 567.004 317.689 566.588 318.327 566.053C318.939 565.544 319.457 564.982 319.882 564.368L319.564 565.129L319.524 553.129L320.006 553.687L317.284 553.056C317.282 552.656 317.335 552.349 317.441 552.136C317.52 551.949 317.706 551.761 317.999 551.574L325.239 551.55ZM301.359 551.63C301.362 552.483 301.15 552.964 300.724 553.072L298.726 553.679L299.164 553.117L299.199 563.597C299.209 566.424 300.213 567.834 302.213 567.827C303.307 567.823 304.385 567.486 305.45 566.816C306.488 566.173 307.338 565.383 308.002 564.447L308.447 566.086L307.847 566.088C306.812 567.318 305.628 568.295 304.297 569.02C302.94 569.744 301.648 570.109 300.421 570.113C298.901 570.118 297.779 569.588 297.056 568.524C296.332 567.46 295.967 565.848 295.959 563.688L295.925 553.368L296.406 553.886L293.444 553.136C293.443 552.736 293.495 552.429 293.601 552.216C293.68 552.029 293.853 551.842 294.119 551.654L301.359 551.63ZM289.577 551.515C289.458 552.36 289.179 552.805 288.742 552.851L286.378 553.283L286.892 552.791L284.826 567.365L284.435 566.703L286.71 567.47C287.094 567.606 287.227 568.096 287.107 568.941C286.081 568.957 285.314 568.956 284.805 568.938C284.266 568.942 283.824 568.92 283.481 568.871C282.795 568.774 282.33 568.533 282.089 568.148C281.847 567.764 281.78 567.189 281.889 566.423L282.097 564.958L282.238 565.099L281.882 565.049C280.706 566.121 279.408 566.92 277.987 567.446C276.539 567.968 275.208 568.143 273.994 567.971C272.515 567.761 271.494 567.078 270.931 565.92C270.368 564.763 270.238 563.115 270.541 560.977L272.012 550.6L272.409 551.222L269.805 550.207C269.861 549.811 269.957 549.515 270.093 549.318C270.198 549.145 270.396 548.984 270.686 548.837L277.617 549.819C277.497 550.664 277.219 551.11 276.781 551.155L274.717 551.469L275.231 550.976L273.76 561.352C273.363 564.151 274.155 565.691 276.135 565.971C276.875 566.076 277.636 566.023 278.421 565.81C279.201 565.625 279.945 565.313 280.654 564.875C281.332 564.459 281.926 563.978 282.434 563.43L282.011 564.138L283.695 552.257L284.092 552.878L281.488 551.863C281.545 551.467 281.64 551.171 281.776 550.975C281.881 550.801 282.092 550.642 282.409 550.499L289.577 551.515ZM265.934 548.163C265.814 549.008 265.535 549.453 265.098 549.499L263.034 549.812L263.548 549.32L262.077 559.696C261.68 562.495 262.472 564.034 264.452 564.315C265.535 564.469 266.651 564.29 267.8 563.78C268.92 563.292 269.875 562.633 270.666 561.802L270.872 563.488L270.278 563.404C269.076 564.472 267.764 565.269 266.343 565.795C264.895 566.317 263.564 566.492 262.35 566.32C260.845 566.107 259.811 565.421 259.248 564.264C258.685 563.107 258.555 561.459 258.858 559.32L260.306 549.103L260.709 549.685L257.884 548.517C257.941 548.121 258.036 547.825 258.172 547.628C258.277 547.455 258.475 547.294 258.765 547.147L265.934 548.163ZM246.787 543.962C248.361 544.372 249.651 545.08 250.656 546.086C251.629 547.111 252.274 548.34 252.59 549.773C252.905 551.205 252.848 552.747 252.418 554.399C251.927 556.283 251.1 557.872 249.936 559.167C248.746 560.455 247.379 561.367 245.835 561.902C244.29 562.436 242.743 562.502 241.195 562.099C239.853 561.749 238.773 561.137 237.953 560.262C237.101 559.407 236.533 558.363 236.247 557.131C235.962 555.9 236.004 554.574 236.374 553.155C236.501 552.664 236.679 552.352 236.907 552.219C237.128 552.111 237.354 552.087 237.587 552.148L249.78 555.324L249.467 556.524L238.868 554.052L239.405 553.737C239.03 554.963 238.906 556.074 239.032 557.071C239.133 558.062 239.441 558.886 239.959 559.545C240.444 560.222 241.112 560.672 241.964 560.893C243.383 561.263 244.716 560.908 245.962 559.827C247.208 558.746 248.143 557.005 248.768 554.605C249.171 553.057 249.305 551.645 249.169 550.37C249 549.113 248.561 548.048 247.851 547.175C247.142 546.301 246.168 545.703 244.929 545.38C243.897 545.111 242.836 545.111 241.747 545.378C240.651 545.671 239.605 546.198 238.608 546.958L238.357 545.859C239.1 545.226 239.949 544.717 240.904 544.332C241.852 543.972 242.83 543.759 243.84 543.691C244.824 543.617 245.806 543.707 246.787 543.962ZM234.483 541.133C234.221 541.889 233.863 542.273 233.408 542.285L231.004 542.259L231.642 541.76L226.795 555.786L226.537 555.062L228.624 556.249C228.783 556.36 228.878 556.534 228.909 556.771C228.932 557.032 228.873 557.365 228.734 557.768C227.699 557.579 226.933 557.428 226.437 557.313C225.932 557.223 225.515 557.121 225.188 557.008C224.583 556.799 224.19 556.466 224.01 556.008C223.82 555.576 223.861 554.969 224.131 554.188L224.68 552.6L224.828 552.905L224.45 552.775C223.36 553.724 222.197 554.394 220.962 554.786C219.701 555.168 218.617 555.203 217.71 554.889C216.752 554.558 216.145 554.109 215.89 553.541C215.626 552.998 215.603 552.412 215.821 551.782C215.987 551.303 216.281 550.939 216.706 550.691C217.105 550.434 217.531 550.384 217.985 550.541C218.112 551.318 218.325 551.885 218.624 552.243C218.924 552.6 219.301 552.857 219.754 553.014C220.46 553.258 221.312 553.2 222.311 552.84C223.311 552.48 224.278 551.967 225.212 551.303L224.7 551.93L228.567 540.739L228.861 541.603L225.82 539.748C225.951 539.37 226.101 539.097 226.272 538.93C226.417 538.755 226.659 538.627 226.997 538.546L234.483 541.133ZM201.386 527.361C202.873 528.085 204.021 529.046 204.832 530.242C205.62 531.427 206.026 532.752 206.053 534.219C206.08 535.686 205.702 537.222 204.919 538.828C204.043 540.626 202.924 542.039 201.563 543.066C200.166 544.106 198.657 544.705 197.037 544.865C195.405 545.048 193.798 544.754 192.216 543.983C191.137 543.457 190.242 542.798 189.53 542.007C188.807 541.239 188.34 540.432 188.128 539.588C187.893 538.731 187.951 537.944 188.301 537.225C188.535 536.745 188.866 536.432 189.294 536.284C189.686 536.149 190.122 536.198 190.601 536.432C190.817 536.537 191.009 536.661 191.177 536.802C191.334 536.967 191.485 537.145 191.63 537.334C191.011 538.605 190.837 539.721 191.109 540.685C191.357 541.636 192.045 542.387 193.171 542.936C194.705 543.684 196.178 543.645 197.589 542.82C198.988 542.019 200.237 540.491 201.335 538.238C202.48 535.889 202.907 533.887 202.616 532.232C202.29 530.59 201.239 529.336 199.466 528.471C198.507 528.004 197.49 527.746 196.417 527.697C195.307 527.661 194.2 527.833 193.094 528.214L193.048 527.123C193.855 526.745 194.747 526.497 195.724 526.38C196.665 526.275 197.625 526.313 198.605 526.494C199.572 526.64 200.5 526.928 201.386 527.361ZM184.102 518.082C186.229 519.358 187.512 521.029 187.952 523.096C188.391 525.163 187.946 527.306 186.615 529.524C185.587 531.239 184.313 532.559 182.795 533.483C181.254 534.393 179.622 534.86 177.898 534.883C176.173 534.907 174.5 534.431 172.876 533.458C171.458 532.607 170.42 531.565 169.761 530.33C169.088 529.118 168.795 527.792 168.882 526.352C168.968 524.911 169.458 523.447 170.349 521.961C171.391 520.223 172.672 518.892 174.19 517.968C175.694 517.066 177.32 516.611 179.067 516.601C180.777 516.601 182.456 517.095 184.102 518.082ZM182.751 518.858C181.219 517.939 179.671 517.85 178.107 518.591C176.52 519.319 175.062 520.791 173.731 523.01C172.401 525.228 171.768 527.165 171.832 528.821C171.897 530.476 172.672 531.75 174.158 532.641C175.691 533.56 177.25 533.656 178.837 532.928C180.41 532.224 181.876 530.739 183.233 528.475C184.564 526.257 185.197 524.32 185.132 522.664C185.031 521.018 184.238 519.749 182.751 518.858ZM171.567 511.023C171.307 511.394 171.072 511.636 170.862 511.75C170.652 511.863 170.437 511.892 170.216 511.835L167.815 511.08L168.497 510.874L153.552 532.198L153.503 531.432L155.282 533.215C155.563 533.51 155.459 534.007 154.97 534.706C154.172 534.31 153.5 533.969 152.952 533.683C152.403 533.396 151.9 533.092 151.441 532.771C150.437 532.067 150.378 531.081 151.266 529.815L165.797 509.08L165.892 509.781L163.675 507.299C163.904 506.972 164.124 506.751 164.334 506.638C164.506 506.531 164.766 506.485 165.114 506.5L171.567 511.023ZM160.574 503.229C160.294 503.585 160.045 503.814 159.83 503.915C159.614 504.017 159.397 504.033 159.18 503.964L156.825 503.076L157.517 502.908L141.404 523.364L141.398 522.596L143.074 524.476C143.338 524.786 143.207 525.277 142.679 525.947C141.905 525.507 141.252 525.129 140.721 524.812C140.19 524.496 139.704 524.164 139.264 523.818C138.301 523.059 138.297 522.072 139.254 520.857L154.922 500.966L154.977 501.672L152.903 499.07C153.15 498.756 153.382 498.548 153.597 498.446C153.776 498.349 154.038 498.318 154.384 498.353L160.574 503.229ZM144.703 489.333C145.909 490.424 146.726 491.648 147.152 493.005C147.541 494.364 147.545 495.751 147.162 497.168C146.78 498.584 146.016 499.925 144.871 501.19C143.565 502.634 142.097 503.661 140.466 504.271C138.815 504.863 137.182 505.039 135.565 504.799C133.948 504.559 132.546 503.902 131.36 502.829C130.332 501.899 129.656 500.856 129.334 499.702C128.975 498.549 128.953 497.361 129.269 496.137C129.586 494.913 130.236 493.757 131.22 492.669C131.56 492.294 131.862 492.099 132.125 492.086C132.371 492.093 132.583 492.176 132.761 492.337L142.104 500.791L141.272 501.71L133.017 494.618L133.638 494.587C132.74 495.501 132.116 496.429 131.767 497.371C131.397 498.296 131.29 499.17 131.445 499.993C131.561 500.818 131.946 501.525 132.599 502.116C133.686 503.1 135.032 503.401 136.637 503.018C138.241 502.636 139.876 501.525 141.539 499.686C142.613 498.5 143.384 497.309 143.853 496.115C144.284 494.923 144.387 493.776 144.162 492.673C143.937 491.571 143.35 490.59 142.401 489.731C141.61 489.016 140.67 488.524 139.58 488.258C138.473 488.011 137.301 487.994 136.066 488.207L136.351 487.117C137.303 486.899 138.291 486.84 139.316 486.94C140.323 487.06 141.289 487.323 142.216 487.73C143.122 488.119 143.952 488.653 144.703 489.333ZM130.262 475.29C131.395 476.493 132.129 477.798 132.464 479.204C132.781 480.591 132.692 481.975 132.198 483.356C131.704 484.737 130.806 486.04 129.505 487.265C128.049 488.636 126.503 489.561 124.866 490.04C123.192 490.518 121.569 490.545 119.997 490.12C118.405 489.714 117.006 488.87 115.8 487.589C114.977 486.715 114.373 485.782 113.988 484.789C113.584 483.815 113.432 482.895 113.533 482.031C113.617 481.147 113.949 480.43 114.532 479.882C114.92 479.516 115.341 479.34 115.793 479.354C116.207 479.366 116.598 479.567 116.963 479.955C117.128 480.13 117.264 480.313 117.371 480.505C117.459 480.715 117.537 480.934 117.606 481.163C116.577 482.132 116.019 483.115 115.933 484.112C115.828 485.09 116.205 486.035 117.064 486.947C118.234 488.19 119.625 488.675 121.237 488.403C122.829 488.149 124.538 487.163 126.363 485.444C128.265 483.653 129.373 481.932 129.687 480.281C129.963 478.629 129.425 477.085 128.072 475.648C127.341 474.872 126.482 474.271 125.495 473.845C124.47 473.418 123.373 473.187 122.205 473.152L122.547 472.115C123.436 472.047 124.358 472.132 125.313 472.368C126.23 472.603 127.115 472.978 127.967 473.495C128.82 473.973 129.585 474.571 130.262 475.29ZM118.301 461.828C119.108 462.821 119.403 463.818 119.186 464.819C118.952 465.8 118.204 466.803 116.942 467.829L103.656 478.627C103.34 478.575 103.01 478.465 102.667 478.297C102.287 478.125 101.919 477.926 101.563 477.7C101.19 477.453 100.876 477.193 100.62 476.92L114.526 465.618C115.333 464.962 115.83 464.369 116.018 463.838C116.168 463.304 115.999 462.737 115.511 462.137C115.124 461.661 114.609 461.238 113.964 460.868C113.303 460.477 112.535 460.208 111.659 460.061L112.082 458.996C112.54 458.967 113.157 459.05 113.933 459.244C114.692 459.417 115.467 459.715 116.258 460.138C117.048 460.561 117.729 461.124 118.301 461.828ZM102.811 468.644L109.594 477.307C109.304 477.542 109.02 477.721 108.742 477.844C108.426 477.963 108.158 477.993 107.937 477.932L100.531 469.518C100.601 469.392 100.679 469.277 100.766 469.173C100.832 469.085 100.917 468.999 101.02 468.914C101.351 468.645 101.681 468.48 102.01 468.419C102.317 468.375 102.584 468.45 102.811 468.644ZM112.057 454.758C111.365 455.258 110.851 455.366 110.515 455.083L108.493 453.583L109.205 453.611L97.1431 462.325L97.3483 461.585L98.444 463.853C98.635 464.208 98.3739 464.644 97.6606 465.159C97.0215 464.502 96.5086 463.952 96.1218 463.507C95.6978 463.057 95.314 462.594 94.9704 462.118C94.2521 461.124 94.509 460.182 95.7411 459.292L107.219 450.999L107.079 451.693L105.821 448.654C106.145 448.42 106.425 448.284 106.66 448.245C106.858 448.201 107.119 448.243 107.442 448.371L112.057 454.758ZM91.7371 464.405C92.1119 464.924 92.2603 465.425 92.1823 465.909C92.0827 466.409 91.7951 466.83 91.3195 467.174C90.844 467.518 90.3378 467.637 89.8009 467.531C89.2484 467.404 88.8238 467.135 88.5271 466.724C88.1523 466.205 88.0148 465.696 88.1144 465.196C88.1767 464.691 88.4565 464.258 88.9537 463.899C89.4076 463.571 89.9108 463.471 90.4633 463.598C91.0002 463.704 91.4247 463.973 91.7371 464.405ZM100.678 437.056C101.978 439.169 102.346 441.243 101.783 443.28C101.219 445.317 99.8363 447.013 97.633 448.368C95.9294 449.416 94.191 450 92.4177 450.12C90.6305 450.217 88.9666 449.879 87.426 449.104C85.8853 448.33 84.6191 447.136 83.6272 445.524C82.7611 444.115 82.3203 442.712 82.3049 441.312C82.2669 439.927 82.6184 438.615 83.3594 437.377C84.1005 436.138 85.2092 435.065 86.6857 434.157C88.412 433.095 90.1617 432.504 91.935 432.384C93.6855 432.278 95.338 432.623 96.8926 433.421C98.4106 434.209 99.6725 435.421 100.678 437.056ZM99.1217 437.121C98.1857 435.599 96.853 434.807 95.1235 434.743C93.38 434.657 91.4066 435.292 89.2033 436.647C87 438.002 85.5452 439.429 84.8391 440.928C84.1329 442.426 84.2338 443.914 85.1419 445.39C86.0779 446.912 87.4176 447.716 89.1611 447.802C90.8818 447.902 92.8666 447.261 95.1153 445.878C97.3186 444.523 98.7734 443.096 99.4795 441.597C100.149 440.09 100.03 438.598 99.1217 437.121ZM92.8446 424.983C92.0785 425.359 91.5536 425.379 91.2699 425.043L89.5833 423.331L90.3876 423.426L77.065 429.963L77.3922 429.268L78.0368 431.581C78.1411 431.975 77.8103 432.36 77.0442 432.736C76.4542 431.897 76.0237 431.261 75.7526 430.83C75.4458 430.386 75.2161 430.009 75.0634 429.698C74.758 429.075 74.6963 428.556 74.8783 428.14C75.0603 427.724 75.4984 427.346 76.1927 427.005L77.5213 426.353L77.5193 426.621L77.3255 426.226C75.7544 425.809 74.3461 425.149 73.1006 424.245C71.8434 423.317 70.927 422.267 70.3514 421.094C68.9888 418.317 70.2346 415.983 74.089 414.091L83.3537 409.545L83.0983 410.205L82.4767 407.213C82.8358 407.037 83.1288 406.938 83.3555 406.916C83.5583 406.905 83.8023 406.979 84.0873 407.136L87.2766 413.635C86.5105 414.011 85.9856 414.031 85.7019 413.695L84.2999 412.2L85.0865 412.259L75.5704 416.929C73.0328 418.174 72.2338 419.754 73.1736 421.669C73.526 422.388 74.022 423.035 74.6617 423.613C75.2657 424.178 75.9539 424.642 76.7264 425.005C77.4749 425.381 78.2244 425.637 78.9747 425.774L78.1514 425.821L88.9244 420.535L88.6331 421.213L88.0095 418.489C88.3686 418.313 88.6674 418.225 88.9059 418.227C89.1087 418.217 89.3585 418.302 89.6553 418.483L92.8446 424.983ZM76.4699 386.447C77.0876 388.293 77.2035 389.942 76.8173 391.392C76.3974 392.827 75.6311 393.73 74.5184 394.102C73.9368 394.297 73.4561 394.289 73.0764 394.079C72.6966 393.868 72.4306 393.535 72.2783 393.08C72.0836 392.499 72.121 391.98 72.3903 391.524C73.7305 391.076 74.6405 390.434 75.1202 389.598C75.5998 388.763 75.6366 387.738 75.2303 386.524C74.858 385.412 74.2878 384.632 73.5199 384.186C72.752 383.74 71.8623 383.687 70.8507 384.025C70.0668 384.288 69.5023 384.701 69.1572 385.267C68.8122 385.832 68.5979 386.494 68.5145 387.253C68.4311 388.013 68.3772 388.818 68.353 389.67C68.3203 390.58 68.2329 391.495 68.0906 392.415C67.9484 393.334 67.6458 394.153 67.1828 394.87C66.6946 395.596 65.97 396.119 65.009 396.441C63.6182 396.906 62.3067 396.727 61.0745 395.902C59.8424 395.077 58.9131 393.729 58.2869 391.857C57.9314 390.795 57.7489 389.788 57.7394 388.835C57.7298 387.882 57.8933 387.068 58.2298 386.393C58.541 385.726 59.0127 385.287 59.6449 385.076C60.1254 384.915 60.5555 384.94 60.9352 385.15C61.2896 385.369 61.543 385.706 61.6953 386.161C61.8307 386.566 61.8186 386.992 61.6589 387.439C60.6221 387.786 59.9229 388.343 59.5612 389.111C59.1995 389.879 59.1879 390.768 59.5264 391.78C59.8395 392.716 60.3168 393.385 60.9582 393.789C61.5995 394.193 62.3122 394.264 63.0961 394.002C63.7536 393.782 64.2381 393.423 64.5495 392.925C64.8271 392.41 65.0035 391.803 65.0786 391.103C65.1536 390.403 65.216 389.665 65.2657 388.889C65.2982 387.894 65.3855 386.895 65.5277 385.891C65.6614 384.862 65.9723 383.942 66.4604 383.132C66.9233 382.331 67.711 381.744 68.8237 381.371C69.9111 381.007 70.9567 380.981 71.9606 381.292C72.9392 381.611 73.8296 382.213 74.6317 383.097C75.4086 383.99 76.0213 385.107 76.4699 386.447ZM71.2495 368.613C71.6051 370.091 71.4 371.347 70.6341 372.381C69.8422 373.422 68.3963 374.195 66.2962 374.7L56.1848 377.133L56.6278 376.41L56.7802 378.924C56.7979 379.111 56.7155 379.282 56.5331 379.436C56.3247 379.596 56.0001 379.729 55.5594 379.835C55.1927 378.881 54.9241 378.163 54.7538 377.683C54.5512 377.184 54.4125 376.778 54.3377 376.467C54.1692 375.767 54.213 375.208 54.4689 374.79C54.7186 374.346 55.2065 374.036 55.9324 373.862L65.4605 371.569C66.8605 371.232 67.8321 370.71 68.3752 370.004C68.8861 369.277 69.0106 368.37 68.7486 367.281C68.5801 366.581 68.3075 365.961 67.9307 365.421C67.5476 364.854 67.1055 364.385 66.6043 364.012C66.071 363.619 65.5174 363.313 64.9437 363.095L65.6704 363.208L53.5366 366.127L53.9796 365.404L54.1414 367.957C54.1591 368.144 54.0767 368.315 53.8943 368.469C53.6797 368.603 53.352 368.723 52.9112 368.829C52.5445 367.875 52.276 367.158 52.1056 366.677C51.9031 366.178 51.7675 365.785 51.6989 365.5C51.5242 364.774 51.5648 364.202 51.8208 363.784C52.0767 363.366 52.5677 363.069 53.2936 362.895L65.6996 359.91C66.1403 359.803 66.4555 359.632 66.6452 359.394C66.8286 359.13 66.8798 358.83 66.7987 358.493C66.7301 358.208 66.5935 357.925 66.389 357.645C66.1524 357.346 65.8992 357.091 65.6294 356.882L66.6045 356.318C67.2032 356.64 67.7231 357.091 68.1642 357.671C68.6054 358.25 68.8977 358.838 69.0412 359.435C69.2346 360.238 69.1281 360.936 68.7219 361.527C68.2897 362.125 67.581 362.542 66.5958 362.78L66.6426 362.974C69.115 364.244 70.6507 366.124 71.2495 368.613ZM66.9551 352.183C66.1073 352.28 65.6062 352.122 65.4518 351.71L64.4378 349.532L65.0441 349.905L50.4193 351.576L50.9609 351.031L50.7917 353.426C50.7577 353.833 50.3167 354.084 49.4689 354.181C49.1949 353.192 49.0026 352.45 48.8921 351.952C48.7521 351.431 48.6624 350.999 48.623 350.654C48.5443 349.965 48.6605 349.456 48.9716 349.125C49.2827 348.794 49.8225 348.585 50.5908 348.497L52.0612 348.329L51.9602 348.502L51.9193 348.144C50.5855 347.276 49.4853 346.221 48.6185 344.978C47.7488 343.709 47.2443 342.465 47.105 341.246C46.9355 339.762 47.3397 338.602 48.3177 337.766C49.2957 336.929 50.8578 336.388 53.0038 336.143L63.416 334.953L62.9142 335.494L63.2412 332.719C63.6386 332.673 63.9493 332.691 64.1734 332.773C64.368 332.831 64.5731 332.982 64.7888 333.226L65.5836 340.181C64.7358 340.278 64.2347 340.12 64.0802 339.709L63.257 337.79L63.8634 338.163L53.4511 339.353C50.6428 339.674 49.3521 340.828 49.5792 342.815C49.6639 343.557 49.9077 344.281 50.3104 344.986C50.6866 345.695 51.176 346.337 51.7785 346.912C52.3515 347.464 52.967 347.917 53.6248 348.271L52.8334 348.039L64.7558 346.677L64.2539 347.217L64.5809 344.442C64.9783 344.397 65.2891 344.415 65.5131 344.497C65.7077 344.555 65.9143 344.719 66.1331 344.99L66.9551 352.183ZM64.2439 328.457C63.396 328.554 62.8949 328.397 62.7405 327.985L61.9173 326.066L62.5236 326.44L52.1114 327.629C49.303 327.95 48.0124 329.104 48.2394 331.091C48.3636 332.178 48.8174 333.213 49.6008 334.197C50.3548 335.158 51.2332 335.916 52.2362 336.472L50.6568 337.096L50.5887 336.5C49.2518 335.606 48.1501 334.537 47.2834 333.294C46.4136 332.025 45.9091 330.781 45.7698 329.562C45.5972 328.052 46 326.878 46.978 326.042C47.956 325.206 49.518 324.665 51.6641 324.419L61.9173 323.248L61.4552 323.784L61.8742 320.757C62.2716 320.711 62.5824 320.729 62.8064 320.811C63.001 320.869 63.2061 321.02 63.4219 321.264L64.2439 328.457ZM63.0595 316.734C62.2066 316.709 61.7332 316.481 61.6395 316.051L60.9486 313.749L61.495 314.206L46.7817 313.762L47.3959 313.3L46.885 315.646C46.793 316.043 46.3205 316.229 45.4675 316.204C45.3381 315.186 45.2544 314.423 45.2164 313.915C45.1525 313.379 45.1258 312.938 45.1363 312.592C45.1572 311.899 45.3453 311.411 45.7007 311.128C46.056 310.846 46.6202 310.716 47.3932 310.739L48.8725 310.784L48.7477 310.94L48.7586 310.58C47.563 309.53 46.6255 308.328 45.946 306.974C45.2674 305.593 44.9465 304.289 44.9835 303.063C45.0285 301.57 45.595 300.48 46.6829 299.793C47.7708 299.105 49.3942 298.794 51.5533 298.859L62.0285 299.175L61.4543 299.638L62.176 296.939C62.5758 296.951 62.8807 297.013 63.0907 297.126C63.2749 297.212 63.4563 297.391 63.6348 297.663L63.4238 304.66C62.5708 304.634 62.0975 304.406 62.0037 303.977L61.4643 301.959L62.0108 302.416L51.5355 302.1C48.7101 302.015 47.2673 302.972 47.207 304.971C47.1845 305.717 47.3219 306.468 47.6192 307.224C47.8899 307.98 48.2822 308.685 48.796 309.341C49.2839 309.969 49.828 310.506 50.4282 310.951L49.6782 310.608L61.6727 310.97L61.0985 311.433L61.8202 308.733C62.22 308.745 62.5249 308.808 62.735 308.921C62.9191 309.007 63.1001 309.199 63.2778 309.498L63.0595 316.734ZM63.7795 292.865C62.9266 292.839 62.4532 292.612 62.3595 292.182L61.8201 290.165L62.3665 290.622L51.8913 290.306C49.0659 290.22 47.6231 291.177 47.5628 293.176C47.5298 294.269 47.8304 295.359 48.4646 296.445C49.073 297.504 49.8336 298.38 50.7464 299.075L49.0939 299.465L49.1119 298.866C47.9172 297.789 46.9801 296.574 46.3006 295.219C45.6219 293.838 45.3011 292.534 45.3381 291.308C45.3839 289.789 45.9508 288.686 47.0387 287.998C48.1266 287.311 49.75 286.999 51.909 287.065L62.2243 287.376L61.6901 287.84L62.539 284.904C62.9388 284.916 63.2438 284.979 63.4538 285.092C63.6379 285.177 63.8193 285.356 63.9978 285.628L63.7795 292.865ZM65.8394 273.368C65.6059 274.978 65.0449 276.338 64.1563 277.449C63.2451 278.529 62.0951 279.306 60.7062 279.778C59.3174 280.25 57.7785 280.364 56.0895 280.119C54.163 279.839 52.4918 279.193 51.076 278.179C49.664 277.139 48.607 275.881 47.9049 274.405C47.2029 272.929 46.9667 271.399 47.1963 269.816C47.3954 268.443 47.8843 267.302 48.6631 266.391C49.4194 265.45 50.3938 264.769 51.5864 264.349C52.7791 263.929 54.1011 263.825 55.5526 264.035C56.054 264.108 56.3837 264.25 56.5416 264.462C56.6732 264.669 56.7217 264.892 56.6873 265.129L54.8787 277.599L53.6515 277.421L54.9361 266.613L55.3084 267.112C54.0493 266.876 52.9311 266.875 51.9539 267.11C50.9805 267.32 50.1952 267.718 49.5981 268.305C48.9784 268.862 48.6054 269.575 48.4791 270.446C48.2686 271.898 48.7693 273.183 49.9812 274.302C51.1932 275.421 53.0263 276.158 55.4806 276.514C57.0641 276.744 58.4821 276.72 59.7347 276.444C60.9648 276.137 61.9748 275.583 62.7647 274.782C63.5546 273.98 64.0414 272.946 64.2252 271.679C64.3783 270.624 64.2617 269.569 63.8756 268.516C63.463 267.459 62.824 266.478 61.9585 265.571L63.0228 265.2C63.7341 265.869 64.334 266.656 64.8223 267.562C65.2842 268.465 65.6046 269.414 65.7835 270.41C65.9662 271.379 65.9849 272.366 65.8394 273.368ZM67.2927 260.809C66.5121 260.634 66.0904 260.321 66.0276 259.869L65.785 257.478L66.3523 258.057L51.872 254.809L52.5625 254.472L51.6167 256.678C51.5238 256.849 51.3616 256.963 51.1301 257.02C50.8726 257.072 50.5356 257.051 50.1193 256.957C50.1908 255.908 50.256 255.13 50.3148 254.624C50.3476 254.112 50.402 253.687 50.4778 253.348C50.6179 252.724 50.9051 252.296 51.3394 252.066C51.7477 251.829 52.3552 251.802 53.1618 251.983L54.8011 252.35L54.5144 252.532L54.6019 252.142C53.5365 251.165 52.7403 250.084 52.2134 248.9C51.6922 247.69 51.5367 246.617 51.7468 245.68C51.9685 244.691 52.3473 244.038 52.883 243.721C53.3927 243.398 53.9728 243.31 54.6233 243.456C55.1177 243.567 55.512 243.819 55.8063 244.213C56.1063 244.581 56.2039 244.999 56.0988 245.467C55.3406 245.68 54.8006 245.955 54.4789 246.293C54.1572 246.631 53.9438 247.034 53.8387 247.502C53.6753 248.231 53.8284 249.071 54.298 250.024C54.7676 250.976 55.3848 251.88 56.1496 252.735L55.4693 252.295L67.0223 254.886L66.1972 255.275L67.7004 252.046C68.0907 252.133 68.3782 252.253 68.5631 252.403C68.7537 252.528 68.908 252.754 69.026 253.081L67.2927 260.809ZM77.2747 226.398C76.7191 227.955 75.8917 229.203 74.7924 230.141C73.7021 231.055 72.4296 231.606 70.9749 231.795C69.5202 231.983 67.9514 231.778 66.2687 231.177C64.385 230.505 62.8572 229.55 61.6855 228.31C60.4976 227.037 59.7347 225.604 59.397 224.012C59.0341 222.41 59.1484 220.78 59.7398 219.122C60.143 217.992 60.6987 217.03 61.407 216.235C62.0902 215.431 62.8398 214.877 63.6559 214.574C64.4809 214.245 65.2702 214.215 66.0237 214.484C66.526 214.663 66.8741 214.958 67.068 215.366C67.2457 215.741 67.2449 216.18 67.0657 216.682C66.9851 216.908 66.8838 217.113 66.7619 217.296C66.6148 217.47 66.4552 217.639 66.2831 217.805C64.9519 217.33 63.8227 217.281 62.8955 217.658C61.9772 218.01 61.3074 218.776 60.8863 219.956C60.3128 221.564 60.5142 223.023 61.4904 224.334C62.4416 225.636 64.0976 226.708 66.4585 227.55C68.9199 228.428 70.9568 228.631 72.5693 228.159C74.1656 227.653 75.2953 226.47 75.9584 224.611C76.3168 223.607 76.4609 222.568 76.3905 221.495C76.3041 220.389 76.0104 219.307 75.5096 218.251L76.5885 218.084C77.0534 218.844 77.3981 219.703 77.6226 220.661C77.831 221.585 77.8995 222.543 77.828 223.537C77.7907 224.515 77.6062 225.468 77.2747 226.398ZM84.5806 208.176C83.5506 210.432 82.0331 211.894 80.0281 212.562C78.0231 213.229 75.8441 213.026 73.491 211.952C71.6717 211.121 70.218 210.003 69.1301 208.598C68.0533 207.168 67.407 205.598 67.1914 203.887C66.9757 202.176 67.261 200.46 68.0473 198.738C68.734 197.234 69.6539 196.085 70.8073 195.293C71.9364 194.489 73.2215 194.05 74.6628 193.975C76.1041 193.9 77.6131 194.222 79.1899 194.942C81.0335 195.784 82.4993 196.908 83.5872 198.313C84.6508 199.707 85.285 201.272 85.4895 203.007C85.681 204.707 85.378 206.43 84.5806 208.176ZM83.659 206.92C84.4011 205.295 84.3164 203.747 83.4052 202.275C82.505 200.78 80.8784 199.495 78.5254 198.421C76.1723 197.346 74.1768 196.934 72.5388 197.182C70.9009 197.431 69.7219 198.344 69.0021 199.921C68.2601 201.546 68.3392 203.107 69.2393 204.602C70.1152 206.087 71.754 207.377 74.1555 208.474C76.5086 209.548 78.5041 209.961 80.1421 209.712C81.7669 209.428 82.9392 208.497 83.659 206.92ZM90.1873 194.952C89.7897 194.734 89.523 194.527 89.3871 194.331C89.2512 194.135 89.1995 193.925 89.2318 193.699L89.7181 191.229L89.9979 191.884L67.159 179.375L67.9158 179.242L66.3386 181.206C66.0763 181.519 65.5709 181.47 64.8225 181.06C65.1282 180.224 65.3934 179.518 65.6178 178.942C65.8423 178.365 66.089 177.832 66.358 177.34C66.9472 176.264 67.9201 176.098 69.2767 176.841L91.4841 189.004L90.7974 189.175L93.0204 186.698C93.3712 186.89 93.6146 187.085 93.7504 187.281C93.8757 187.44 93.9498 187.694 93.9726 188.041L90.1873 194.952ZM96.7349 183.147C96.3497 182.908 96.0945 182.687 95.9695 182.484C95.8444 182.281 95.8041 182.068 95.8486 181.844L96.4677 179.404L96.7117 180.073L74.5828 166.348L75.3457 166.256L73.6646 168.132C73.3857 168.429 72.8837 168.353 72.1586 167.904C72.5091 167.085 72.812 166.395 73.0673 165.831C73.3226 165.268 73.5979 164.748 73.893 164.272C74.5396 163.23 75.5201 163.116 76.8345 163.932L98.3515 177.278L97.6566 177.412L100.01 175.059C100.35 175.27 100.583 175.477 100.708 175.68C100.824 175.846 100.884 176.103 100.888 176.451L96.7349 183.147ZM108.769 165.853C107.817 167.172 106.69 168.118 105.389 168.691C104.081 169.227 102.702 169.383 101.252 169.159C99.8027 168.934 98.3859 168.323 97.0021 167.324C95.4237 166.185 94.2416 164.838 93.4558 163.284C92.6856 161.708 92.3309 160.104 92.3917 158.471C92.4526 156.837 92.9513 155.372 93.8877 154.075C94.6993 152.95 95.6612 152.165 96.7732 151.718C97.8792 151.233 99.0579 151.081 100.309 151.261C101.561 151.441 102.781 151.96 103.97 152.818C104.381 153.115 104.608 153.393 104.65 153.654C104.67 153.899 104.61 154.119 104.47 154.313L97.0951 164.53L96.0897 163.804L102.231 154.818L102.33 155.433C101.323 154.64 100.332 154.122 99.3571 153.879C98.3974 153.614 97.5171 153.603 96.716 153.847C95.909 154.054 95.248 154.514 94.7329 155.227C93.8745 156.417 93.7235 157.788 94.2799 159.34C94.8364 160.893 96.12 162.395 98.1308 163.847C99.4282 164.783 100.696 165.419 101.934 165.754C103.167 166.051 104.318 166.027 105.39 165.683C106.461 165.338 107.371 164.646 108.12 163.608C108.744 162.743 109.129 161.755 109.274 160.643C109.398 159.515 109.286 158.349 108.938 157.144L110.053 157.308C110.374 158.23 110.542 159.206 110.555 160.235C110.547 161.249 110.392 162.239 110.089 163.204C109.802 164.148 109.362 165.031 108.769 165.853ZM121.139 149.957C120.067 151.216 118.851 152.089 117.49 152.576C116.147 153.043 114.762 153.107 113.335 152.767C111.907 152.428 110.514 151.679 109.154 150.52C107.631 149.224 106.542 147.788 105.886 146.214C105.227 144.602 105.022 142.991 105.272 141.382C105.501 139.756 106.186 138.273 107.327 136.933C108.105 136.02 108.966 135.317 109.911 134.825C110.834 134.316 111.732 134.064 112.602 134.07C113.49 134.056 114.239 134.308 114.848 134.827C115.254 135.172 115.475 135.571 115.511 136.022C115.544 136.435 115.388 136.845 115.042 137.251C114.887 137.434 114.719 137.589 114.54 137.717C114.341 137.828 114.132 137.93 113.912 138.023C112.836 137.106 111.798 136.66 110.797 136.683C109.814 136.687 108.916 137.165 108.103 138.119C106.997 139.419 106.667 140.854 107.115 142.427C107.542 143.981 108.71 145.571 110.618 147.197C112.608 148.891 114.44 149.803 116.115 149.934C117.787 150.027 119.263 149.322 120.543 147.82C121.234 147.008 121.737 146.088 122.052 145.06C122.364 143.995 122.473 142.879 122.38 141.714L123.448 141.941C123.613 142.816 123.63 143.742 123.5 144.717C123.367 145.655 123.091 146.575 122.672 147.479C122.29 148.38 121.779 149.206 121.139 149.957ZM133.21 136.577C132.312 137.49 131.354 137.893 130.335 137.788C129.334 137.664 128.254 137.032 127.095 135.891L114.893 123.883C114.909 123.562 114.982 123.222 115.111 122.863C115.24 122.466 115.397 122.078 115.582 121.699C115.787 121.302 116.01 120.96 116.253 120.676L129.025 133.245C129.767 133.974 130.411 134.403 130.959 134.531C131.507 134.62 132.052 134.39 132.594 133.839C133.024 133.401 133.388 132.842 133.684 132.161C133.999 131.461 134.181 130.667 134.23 129.781L135.336 130.083C135.415 130.535 135.401 131.157 135.294 131.95C135.206 132.724 134.996 133.527 134.663 134.359C134.33 135.192 133.846 135.931 133.21 136.577ZM124.72 121.937L116.862 129.637C116.596 129.375 116.387 129.113 116.234 128.85C116.08 128.55 116.022 128.286 116.058 128.06L123.6 119.768C123.732 119.824 123.855 119.889 123.969 119.963C124.064 120.019 124.159 120.094 124.254 120.187C124.558 120.486 124.758 120.796 124.855 121.116C124.933 121.417 124.888 121.691 124.72 121.937ZM139.54 129.595C138.967 128.962 138.803 128.463 139.047 128.098L140.316 125.923L140.366 126.634L130.376 115.605L131.135 115.728L129.001 117.067C128.669 117.296 128.207 117.084 127.617 116.432C128.199 115.724 128.69 115.154 129.089 114.72C129.49 114.249 129.908 113.817 130.342 113.423C131.251 112.6 132.216 112.751 133.237 113.878L142.743 124.372L142.038 124.309L144.92 122.724C145.188 123.021 145.355 123.284 145.419 123.514C145.485 123.706 145.472 123.969 145.38 124.305L139.54 129.595ZM127.713 110.461C127.239 110.891 126.757 111.094 126.267 111.069C125.76 111.026 125.309 110.786 124.915 110.351C124.522 109.917 124.348 109.427 124.393 108.881C124.459 108.318 124.679 107.866 125.055 107.526C125.529 107.097 126.02 106.904 126.528 106.948C127.037 106.954 127.498 107.185 127.91 107.639C128.286 108.054 128.441 108.543 128.375 109.106C128.329 109.652 128.109 110.103 127.713 110.461ZM155.884 116.327C153.928 117.852 151.907 118.447 149.82 118.113C147.734 117.779 145.895 116.592 144.304 114.552C143.074 112.975 142.302 111.312 141.986 109.563C141.691 107.798 141.844 106.106 142.443 104.49C143.042 102.873 144.088 101.482 145.581 100.318C146.884 99.301 148.231 98.7075 149.62 98.5373C150.992 98.3461 152.335 98.5502 153.648 99.1496C154.961 99.749 156.15 100.732 157.216 102.099C158.462 103.697 159.243 105.371 159.559 107.12C159.858 108.848 159.698 110.528 159.078 112.162C158.463 113.758 157.398 115.146 155.884 116.327ZM155.647 114.787C157.056 113.688 157.696 112.276 157.567 110.55C157.46 108.808 156.611 106.917 155.02 104.877C153.429 102.837 151.85 101.549 150.282 101.013C148.715 100.477 147.248 100.742 145.881 101.808C144.472 102.907 143.821 104.328 143.929 106.07C144.02 107.791 144.877 109.693 146.5 111.774C148.091 113.814 149.67 115.102 151.238 115.638C152.81 116.136 154.28 115.853 155.647 114.787ZM167.02 107.2C166.562 106.48 166.483 105.961 166.786 105.642L168.3 103.775L168.294 104.585L160.315 92.0724L161.043 92.3203L158.816 93.2181C158.436 93.3658 158.016 93.0798 157.558 92.3603C158.326 91.6806 158.909 91.182 159.308 90.8646C159.715 90.5104 160.064 90.2401 160.356 90.0537C160.941 89.681 161.45 89.5619 161.884 89.6965C162.318 89.831 162.742 90.2244 163.158 90.8764L163.954 92.1243L163.687 92.1521L164.058 91.9156C164.298 90.3078 164.798 88.8348 165.557 87.4965C166.339 86.1438 167.281 85.1163 168.383 84.4137C170.991 82.7506 173.449 83.729 175.758 87.349L181.306 96.0504L180.622 95.87L183.526 94.9194C183.741 95.2566 183.873 95.5367 183.92 95.7596C183.953 95.96 183.907 96.2106 183.782 96.5114L177.678 100.404C177.219 99.6845 177.141 99.1651 177.443 98.8457L178.773 97.286L178.802 98.0744L173.103 89.1369C171.583 86.7536 169.924 86.1354 168.125 87.2824C167.45 87.7125 166.862 88.2776 166.359 88.9775C165.865 89.6406 165.48 90.3762 165.205 91.1844C164.915 91.97 164.744 92.7433 164.691 93.5041L164.553 92.6913L171.005 102.809L170.299 102.595L172.936 101.672C173.151 102.01 173.271 102.297 173.296 102.534C173.329 102.734 173.272 102.992 173.125 103.307L167.02 107.2ZM203.501 86.6317C201.736 87.4521 200.111 87.7515 198.626 87.53C197.154 87.273 196.17 86.6126 195.676 85.5485C195.418 84.9923 195.372 84.5137 195.538 84.1129C195.705 83.712 196.006 83.4104 196.441 83.2082C196.997 82.9497 197.517 82.9288 198 83.1454C198.595 84.4272 199.335 85.2596 200.219 85.6429C201.103 86.0261 202.125 85.948 203.286 85.4086C204.35 84.9142 205.061 84.2605 205.418 83.4475C205.775 82.6345 205.729 81.7444 205.28 80.777C204.931 80.0274 204.457 79.5127 203.856 79.233C203.256 78.9533 202.574 78.8145 201.81 78.8165C201.047 78.8184 200.24 78.855 199.391 78.9261C198.483 78.9955 197.563 79.0109 196.634 78.9724C195.705 78.9338 194.857 78.7246 194.093 78.3448C193.317 77.9408 192.716 77.2793 192.289 76.3603C191.67 75.0302 191.702 73.7069 192.384 72.3902C193.066 71.0735 194.302 69.9994 196.092 69.1678C197.107 68.6958 198.088 68.4018 199.034 68.2857C199.98 68.1696 200.807 68.2411 201.515 68.5C202.213 68.7347 202.702 69.1544 202.983 69.7589C203.196 70.2184 203.22 70.6486 203.053 71.0495C202.875 71.4261 202.569 71.7156 202.133 71.9179C201.746 72.0977 201.322 72.1333 200.86 72.0246C200.399 71.0331 199.767 70.4005 198.963 70.127C198.16 69.8534 197.275 69.9414 196.307 70.3909C195.412 70.8067 194.8 71.3558 194.47 72.0383C194.141 72.7209 194.15 73.437 194.498 74.1866C194.791 74.8154 195.201 75.2567 195.731 75.5105C196.274 75.7288 196.897 75.8362 197.601 75.8325C198.305 75.8288 199.045 75.8083 199.822 75.7709C200.814 75.6919 201.817 75.667 202.83 75.696C203.868 75.7138 204.816 75.9199 205.676 76.3144C206.524 76.6847 207.196 77.4019 207.69 78.466C208.173 79.5058 208.317 80.5419 208.12 81.5743C207.912 82.5824 207.414 83.5345 206.625 84.4306C205.824 85.3024 204.783 86.0361 203.501 86.6317ZM220.642 79.4483C219.213 79.9671 217.942 79.9038 216.828 79.2585C215.705 78.5881 214.775 77.2378 214.038 75.2075L210.488 65.4319L211.257 65.7911L208.776 66.2239C208.591 66.2626 208.413 66.1998 208.239 66.0357C208.057 65.8465 207.889 65.5389 207.734 65.1128C208.641 64.6416 209.324 64.2945 209.782 64.0714C210.256 63.8142 210.643 63.631 210.944 63.5218C211.621 63.2761 212.181 63.257 212.625 63.4645C213.094 63.6629 213.457 64.1131 213.711 64.8149L217.056 74.0265C217.547 75.3801 218.175 76.2871 218.938 76.7477C219.717 77.1741 220.632 77.1962 221.685 76.814C222.362 76.5682 222.948 76.2279 223.442 75.793C223.962 75.349 224.379 74.8571 224.694 74.3173C225.024 73.7433 225.266 73.159 225.419 72.5645L225.388 73.2992L221.129 61.5685L221.897 61.9277L219.379 62.3742C219.194 62.4128 219.015 62.3501 218.842 62.186C218.685 61.9877 218.529 61.6755 218.374 61.2494C219.281 60.7782 219.964 60.4311 220.422 60.2081C220.896 59.9508 221.271 59.7722 221.547 59.6721C222.248 59.4172 222.821 59.3936 223.266 59.6011C223.71 59.8087 224.059 60.2634 224.314 60.9652L228.669 72.9591C228.824 73.3852 229.03 73.6792 229.287 73.8411C229.569 73.9938 229.874 74.0111 230.199 73.8928C230.475 73.7927 230.741 73.6253 230.996 73.3908C231.267 73.1221 231.492 72.842 231.67 72.5504L232.339 73.4564C232.086 74.0873 231.696 74.6544 231.169 75.1577C230.643 75.6609 230.091 76.0172 229.515 76.2265C228.738 76.5087 228.033 76.481 227.399 76.1435C226.757 75.7809 226.263 75.1234 225.917 74.1709L225.729 74.2392C224.744 76.8382 223.048 78.5746 220.642 79.4483ZM236.529 73.3252C236.335 72.4942 236.434 71.9783 236.825 71.7774L238.873 70.5191L238.572 71.1645L235.226 56.8297L235.83 57.3049L233.432 57.4127C233.024 57.4258 232.723 57.0168 232.529 56.1857C233.48 55.7996 234.196 55.523 234.677 55.3559C235.178 55.1568 235.597 55.0179 235.935 54.9391C236.61 54.7815 237.13 54.8382 237.495 55.1091C237.859 55.38 238.129 55.8921 238.305 56.6452L238.641 58.0864L238.458 58.0059L238.809 57.9241C239.517 56.4992 240.438 55.2847 241.573 54.2805C242.734 53.2703 243.911 52.6258 245.106 52.347C246.56 52.0076 247.759 52.2755 248.703 53.1506C249.646 54.0257 250.364 55.515 250.854 57.6185L253.236 67.8242L252.642 67.388L255.436 67.393C255.527 67.7826 255.544 68.0933 255.489 68.3253C255.454 68.5253 255.327 68.7465 255.11 68.9889L248.293 70.5798C248.099 69.7488 248.198 69.2328 248.589 69.032L250.4 67.9931L250.099 68.6385L247.717 58.4327C247.075 55.68 245.78 54.531 243.832 54.9855C243.105 55.1552 242.414 55.4807 241.76 55.962C241.1 56.4174 240.518 56.9775 240.016 57.6423C239.534 58.2751 239.155 58.9386 238.879 59.6329L239.018 58.82L241.745 70.506L241.15 70.0698L243.945 70.0748C244.036 70.4644 244.053 70.7751 243.998 71.0071C243.962 71.2071 243.823 71.4313 243.58 71.6797L236.529 73.3252ZM259.784 67.898C259.59 67.067 259.689 66.551 260.08 66.3502L261.892 65.3114L261.59 65.9567L259.209 55.7509C258.566 52.9982 257.271 51.8492 255.324 52.3037C254.259 52.5522 253.283 53.1222 252.396 54.0139C251.528 54.8735 250.876 55.8335 250.439 56.8939L249.638 55.3969L250.222 55.2605C250.956 53.8296 251.89 52.612 253.025 51.6078C254.186 50.5976 255.364 49.9531 256.558 49.6743C258.038 49.3288 259.25 49.5937 260.194 50.4688C261.138 51.3439 261.855 52.8332 262.346 54.9367L264.691 64.9866L264.105 64.5893L267.161 64.6567C267.252 65.0462 267.269 65.357 267.214 65.589C267.179 65.789 267.052 66.0101 266.835 66.2525L259.784 67.898Z" fill="#0D3330"/>
</svg>
